<?xml version="1.0" encoding="utf-8"?>
<!-- Generator: Adobe Illustrator 21.0.2, SVG Export Plug-In . SVG Version: 6.00 Build 0)  -->
<svg version="1.1" id="Layer_1" xmlns="http://www.w3.org/2000/svg" xmlns:xlink="http://www.w3.org/1999/xlink" x="0px" y="0px"
	 viewBox="0 0 612 792" style="enable-background:new 0 0 612 792;" xml:space="preserve">
<style type="text/css">
	.st0{fill:#BF2E1B;}
	.st1{fill:#EB4D24;}
	.st2{fill:#D24521;}
	.st3{fill:#74EBFF;}
	.st4{fill:#82F4FF;}
	.st5{fill:#76DEFF;}
	.st6{fill:#CFFBFF;}
	.st7{fill:#FF5328;}
</style>
<g>
	<path class="st0" d="M202.7,427.2c0.9-6.8,3.7-13.8,8.2-20.4c2.6-3.9,6.4-7.2,10-10.5l1.8-1.6l0.3-0.3c1.6-1.5,3.2-2.9,4.8-4.3
		l1.8-1.6c0.2-0.2,0.4-0.4,0.6-0.5c2.1-3.5,4.1-7,6.5-10.3c1.3-1.7,2.5-3.4,3.8-5c1.8-2.1,3.9-4.1,5.9-6c3.1-3.1,6.1-6.3,9.4-9.2
		c2.4-2.2,4.8-4.4,7.1-6.6c3.4-3.6,6.9-7.3,10.3-11c3-3.3,6.1-6.5,9.2-9.6c1.4-1.4,2.9-2.7,4.4-4c1.9-2.1,3.8-4.2,5.8-6.3
		c2.6-2.7,5.3-5.3,8-7.9c3.6-3.7,7.2-7.5,11.2-10.7c2.7-2.2,5.4-4.3,8.1-6.4c2.4-2.3,4.8-4.5,7.3-6.7c6.3-5.6,13.3-10.3,20.8-14.2
		c0.4-0.3,0.8-0.6,1.1-0.8c5.6-4,11.2-7.9,17.2-11.4c4.8-2.8,9.7-5.2,14.9-7.2c2.8-1.1,5.7-2,8.5-2.8c2.6-0.8,5.3-1.6,8-2.2
		c1-0.5,2-1,3-1.5c2.5-1.2,5.1-2.3,7.7-3.3c1.3-0.5,2.6-0.9,3.9-1.2c2.3-0.7,5-1.6,7.5-2c4.1-0.6,8.5-0.7,12.6-0.4
		c0.8,0.1,1.7,0.1,2.5,0.2c1.4,0.2,2.9,0.4,4.3,0.6c1.6-3,2.9-5.8,4.1-8.6c2.9-6.5,4.5-14,5.7-20.5c1-5,0.2-14,0.1-15.1
		c-0.4-4.6-1.5-8.1-3-12.7l-0.6-1.8c-0.2-0.7-0.5-1.3-0.7-2c2.5-4,5.1-8.1,7.6-12.1l2.5-4.6l2.5-4.6c2.7-6.8,3.5-13.9,2.4-21.2
		c-1.6-10.6-7.5-20.4-16.1-26.7c-4.8-3.6-10.3-6-16.1-7.2c-0.1-2.2-0.6-4.3-1.5-6.3c-1.9-4.2-5.4-7.6-9.7-9.3c-3-1.2-6.1-1.5-9.1-1
		c-1.6,0.2-3.2,0.7-4.8,1.3c-3.6,1.3-7,2.8-10.3,4.6c-2.6,1.4-5.1,2.9-7.6,4.5c-2.4,1.5-4.6,3-6.9,4.6c-4.3,2.8-8.6,5.6-12.5,9
		c-4.1,3.6-8.1,7.4-12.4,10.8c-2.1,1.7-4.2,3.3-6.2,5c-1.9,1.6-3.7,3.4-5.5,5.1c-3.8,3.5-7.6,7.1-11.5,10.6
		c-4.1,3.7-8.1,7.5-12.1,11.3c-4,3.8-8,7.5-11.9,11.4c-3.9,3.9-7.9,7.8-11.9,11.6c-6.5,6.2-12.6,12.9-18.8,19.4
		c-3.6,3.7-7.2,7.4-11,11c-1.8,1.8-3.8,3.5-5.7,5.2c-0.9,0.8-1.9,1.6-2.8,2.4c-1.2,1.2-2.4,2.4-3.6,3.7c-3.6,3.6-7.4,6.9-10.9,10.5
		c-2.8,2.9-5.6,5.9-8.2,8.9c-1.7,2-3.4,4.1-5.3,6c-3.8,4-7.2,8.2-10.3,12.8c-2.8,4.2-6.3,7.9-9.3,12c-2.7,3.8-5.4,7.6-8.1,11.4
		c-2.9,3.9-5.7,7.8-8.5,11.8c-2.9,4.2-5.7,8.5-8.5,12.8c-3.2,4.8-5.9,9.9-8.7,15c-1.5,2.8-3,5.5-4.4,8.3c-1.9,3.4-3.8,6.9-5.6,10.4
		c-1.9,2.4-3.8,4.8-5.6,7.2l-2.2,2.8c-2.7,3.4-5.3,7.1-7.8,10.6l-0.4,0.5l-3.2,4.5c-1.3,1.8-2.6,3.7-3.9,5.6
		c-0.6,0.9-1.3,1.9-1.9,2.8c-4.2,6.1-9,13.1-11.7,20.4c-6.5,17.5-0.9,37.2,13.7,47.9c8.6,6.4,19.3,9,30.1,7.4
		c10.8-1.6,20.4-7.3,26.9-15.9C199.4,431.4,201,429.3,202.7,427.2z"/>
	<path class="st1" d="M528.9,273.1c-6.6-8.5-16.5-14.1-27.1-15.4l-10.7,0.1l-0.2,0c-2.2,0.3-4.5,0.9-6.7,1.6
		c-2.1-1.4-4.4-2.6-6.8-3.6c-3.4-1.4-7-2.3-10.6-2.8c0,0,0,0-0.1,0c-0.2-0.4-0.5-0.8-0.7-1.3c-1.9-2.5-4.4-4.3-7.3-5.5
		c-3.8-1.9-7.6-3.1-11.8-3.9c-2.8-0.6-5.6-0.9-8.4-1.3c-1.6-0.2-3.1-0.5-4.7-0.7c-0.8-0.1-1.7-0.2-2.5-0.2
		c-4.1-0.3-8.5-0.2-12.6,0.4c-2.5,0.4-5.1,1.3-7.5,2c-1.3,0.4-2.6,0.8-3.9,1.2c-2.6,1-5.2,2-7.7,3.3c-1,0.5-2,1-3,1.5
		c-2.7,0.6-5.4,1.4-8,2.2c-2.9,0.9-5.7,1.8-8.5,2.8c-5.2,2-10.1,4.4-14.9,7.2c-6,3.5-11.6,7.4-17.2,11.4c-0.4,0.3-0.8,0.6-1.1,0.8
		c-7.5,3.9-14.5,8.7-20.8,14.2c-2.5,2.2-4.9,4.4-7.3,6.7c-2.7,2.1-5.4,4.3-8.1,6.4c-4,3.3-7.6,7-11.2,10.7c-2.7,2.6-5.4,5.2-8,7.9
		c-2,2.1-3.9,4.2-5.8,6.3c-1.5,1.3-3,2.6-4.4,4c-3.2,3.2-6.2,6.3-9.2,9.6c-3.4,3.7-6.8,7.4-10.3,11c-2.3,2.3-4.7,4.4-7.1,6.6
		c-3.3,2.9-6.3,6.1-9.4,9.2c-2,2-4.1,3.9-5.9,6c-1.4,1.6-2.6,3.3-3.8,5c-2.5,3.2-4.4,6.8-6.5,10.3c-0.2,0.2-0.4,0.4-0.6,0.5
		l-1.8,1.6c-1.6,1.4-3.2,2.9-4.8,4.3l-0.3,0.3l-1.8,1.6c-3.6,3.3-7.3,6.6-10,10.5c-5.4,7.9-8.4,16.4-8.5,24.6
		c-6.1,7.1-9.4,14.5-10.1,22.6c-1,11.6,1.8,21.8,8.3,30.1c6.6,8.5,16.3,14,27.1,15.4l0.3,0.1c8.5,1.1,16.7-0.3,26.6-4.6
		c0.6-0.3,1.2-0.5,1.8-0.8l0.7-0.3c3.2,2.7,6.8,4.9,10.6,6.5c3.5,1.4,7,2.3,10.6,2.8c3.6,0.4,7.2,0.4,10.9-0.1
		c7.1-1.1,13.5-3.8,19.2-8.2c7.2-4.5,13.9-9.8,20.4-14.9l3.5-2.8c3.2-2.5,6.4-5.1,9.7-7.7l5.7-4.6l6.1-4.8l2-1.6l7-4.6
		c15.7-6.5,28.1-13.2,38.9-21.1c5.3-3.8,9.9-8.8,14.6-14c2.2-2.4,4.1-5.2,5.7-8.4c9.1-8.2,18-17.6,27.4-28.7l2-1.5l2-1.5
		c1.8-1.4,3.6-2.8,5.3-4.1l0.7-0.6l0.2-0.2c4.4-3.5,9-7.1,13.7-10.4l23.7-16.4c6.6-4.5,13.6-8.7,20.3-12.7c1.8-1.1,3.6-2.1,5.4-3.2
		l3.7-3.7l3.6-3.6c4.4-5.8,7.1-12.5,8.1-19.8C538.5,292.5,535.5,281.5,528.9,273.1z"/>
	<path class="st2" d="M113.9,313c3,7.1,7.8,13.1,13.7,17.5c9.3,6.9,21.7,9.8,34,7.9c0.4-0.1,0.8-0.1,1.3-0.2
		c0.8-0.1,1.6-0.3,2.4-0.5c1.4-2.8,2.9-5.5,4.5-8.3c1.5-2.8,2.9-5.5,4.4-8.3c2.8-5.1,5.5-10.2,8.7-15c2.8-4.3,5.6-8.6,8.5-12.8
		c2.8-4,5.7-7.9,8.5-11.8c2.7-3.8,5.4-7.6,8.1-11.4c3-4.1,6.5-7.8,9.3-12c3-4.6,6.5-8.8,10.3-12.8c1.8-1.9,3.6-4,5.3-6
		c2.6-3.1,5.4-6.1,8.2-8.9c3.5-3.6,7.3-7,10.9-10.5c1.2-1.2,2.4-2.5,3.6-3.7c0.9-0.8,1.9-1.6,2.8-2.4c1.9-1.7,3.9-3.4,5.7-5.2
		c3.7-3.6,7.3-7.3,11-11c6.2-6.6,12.3-13.2,18.8-19.4c4-3.8,8-7.7,11.9-11.6c3.9-3.9,7.9-7.6,11.9-11.4c4-3.8,8-7.6,12.1-11.3
		c3.9-3.5,7.7-7,11.5-10.6c1.8-1.7,3.6-3.4,5.5-5.1c2-1.7,4.1-3.4,6.2-5c4.3-3.4,8.3-7.2,12.4-10.8c3.8-3.4,8.2-6.1,12.5-9
		c2.3-1.5,4.6-3.1,6.9-4.6c2.5-1.5,5-3.1,7.6-4.5c3.4-1.8,6.8-3.3,10.3-4.6c1.6-0.6,3.2-1,4.8-1.3c3-0.5,6-0.2,9.1,1
		c1.6,0.6,3.1,1.5,4.5,2.6c0.4-2.1,0.8-4.3,1-6.4c1.7-18.8-8.5-36-25.4-42.7c-6.8-2.7-13.9-3.5-21.2-2.4
		c-9.3,1.4-21.2,6.9-26.7,16.1c-2.5,4.2-4.7,7.6-6.9,11.1c0,0,0,0,0,0l0,0c-1-0.2-1.9-0.3-2.8-0.4c-3.6,0.1-7.3,0.1-11,0.2
		c-3.6,0.6-7.1,1.6-10.6,3c-1.1,0.5-2.2,1-3.2,1.6c-0.1,0-0.1,0-0.1,0c0,0,0,0,0,0c-9.7-2.6-19.7-5.1-29.6-7.4
		c-10-2.3-19.6-2.8-28.7-1.4c-4.7,0.7-9.3,1.9-13.5,3.7c-8.9,3.6-16.2,9.7-22.2,15.1c-8,7.3-15.9,15.5-23.7,24.3
		c-7,8-12.7,16.8-16.8,26.2c-2.7,6.1-4.1,13-5.1,19c-0.9,5.3-0.7,11-0.4,16.6l0,0.6c0.1,1.6,0.1,3.1,0.2,4.6
		c0.1,3.8,0.3,7.8,0.6,12.3c-3.8,3.5-7.6,6.9-11.5,10.3l-3.6,3.2c-5.9,5.2-11.8,10.4-17.7,15.6l-13.3,11.9c-3,2.7-6,5.4-8.9,8.2
		c-4.2,3.9-8.4,8.3-12.5,13.1c-3.1,3.6-5.3,8-7.4,12.2l-0.3,0.5c-0.5,1-1,2-1.5,2.9l-1.5,6l-1.1,4.2c-0.8,7.4,0.3,14.6,3.2,21.4
		C101.9,302.7,107.1,308.6,113.9,313z"/>
</g>
<g>
	<g>
		<path class="st3" d="M219.7,264.6c-0.5,1.9-0.6,3.9-0.8,5.9c-0.2,1.5-0.3,3-0.5,4.5c-0.4,2.9-0.8,5.8-1.2,8.8
			c-0.6,4.1-1.2,8.2-1.7,12.3c-0.3,1.6-0.6,3.2-0.9,4.8c-0.5,1.9-0.9,3.7-1.4,5.6c-0.4,1.6-0.9,3.2-1.4,4.8c-0.6,1.7-1.4,3.4-2,5
			c0.2-0.4,0.4-0.9,0.6-1.3c-1,2.2-1.9,4.5-3.1,6.6c-1.1,2.1-2.2,4.2-3.6,6.1c-0.7,0.9-1.5,1.8-2.4,2.6c-0.8,0.8-1.7,1.6-2.7,2.3
			c-0.1,0.1-0.3,0.2-0.4,0.3c-0.2,0-0.5,0-0.7,0c-1.5-0.3-3-0.6-4.4-1.2c-0.7-0.4-1.4-0.7-2.1-1.2c-1.5-1.3-2.9-2.7-4.2-4.2
			c-1-1.4-1.8-2.9-2.5-4.4c-1-2.8-1.9-5.6-2.7-8.5c-0.7-2.5-1.5-5-2-7.6c-0.2-2.1-0.1-4.1-0.1-6.2c0-2.7,0-5.5,0.1-8.2
			c0.2-5.7,0.6-11.5,1.2-17.2c0.1-1.4-0.7-2.9-1.6-3.9c-1-1-2.4-1.6-3.9-1.6c-1.5,0-2.9,0.6-3.9,1.6c-1.1,1.1-1.5,2.4-1.6,3.9
			c-0.6,5.7-1,11.4-1.2,17.2c-0.1,2.7-0.1,5.5-0.1,8.2c0,2.9,0,5.7,0.4,8.6c0.4,2.4,1.1,4.6,1.7,6.9c0.7,2.5,1.4,5,2.2,7.5
			c0.9,2.7,2,5.3,3.4,7.8c0.8,1.4,1.8,2.6,2.7,3.8c0.8,1,1.7,1.9,2.7,2.8c1.5,1.4,3.1,2.8,4.9,3.8c2.2,1.3,4.8,2.1,7.3,2.6
			c2.7,0.5,5.6,1,8.2-0.1c1.1-0.5,1.8-0.8,2.8-1.5c0.5-0.4,1-0.8,1.5-1.2c0.5-0.4,0.9-0.7,1.4-1.1c2-1.8,3.8-3.7,5.4-5.9
			c1.5-2.1,2.7-4.5,4-6.8c1.4-2.5,2.4-5.2,3.6-7.9c1-2.4,2-4.8,2.7-7.2c0.7-2.4,1.3-4.9,1.9-7.3c0.7-3,1.2-6,1.5-9
			c0.1-0.9,0.2-1.7,0.3-2.6c0.5-3.4,1-6.8,1.4-10.2c0.4-2.7,0.8-5.4,1.1-8.1c0.3-2.1,0.5-4.2,0.7-6.2c0-0.2,0.1-0.4,0.1-0.5
			c0.7-2.9-0.9-6-3.8-6.8c-0.5-0.1-0.9-0.2-1.4-0.2C222.7,260.6,220.3,262.2,219.7,264.6 M230.1,268.4c0,0.1,0,0.2,0,0.3
			C230.1,268.5,230.1,268.5,230.1,268.4 M228.5,281.1c0,0.3-0.1,0.6-0.1,0.8C228.5,281.6,228.5,281.4,228.5,281.1 M199.1,332.2
			c-0.1,0.1-0.2,0.2-0.4,0.3C198.8,332.4,199,332.3,199.1,332.2 M199,332.6c-0.2,0.1-0.4,0.2-0.6,0.3
			C198.5,332.8,198.7,332.7,199,332.6 M197.9,333c-0.1,0-0.1,0-0.2,0C197.7,333,197.8,333,197.9,333"/>
		<path class="st4" d="M229,259.8c-2.6,0-4.8,1.7-5.4,4c-0.4,1.5-0.5,3.1-0.7,4.6c0,0.5-0.1,0.9-0.1,1.3c-0.2,1.5-0.3,3-0.5,4.5
			c-0.4,2.9-0.8,5.9-1.2,8.8c-0.6,3.9-1.1,7.9-1.7,12.3c-0.3,1.5-0.5,3.2-0.9,4.8c-0.3,1.4-0.7,2.8-1.1,4.2l-0.3,1.3
			c-0.4,1.6-0.9,3.3-1.4,4.8c-0.4,1.2-1,2.5-1.4,3.6l-0.1,0.2l-0.1,0.2c-0.9,2.1-1.8,4.3-3,6.3l-0.3,0.6c-1,1.8-2,3.7-3.2,5.5
			c-0.8,1-1.6,1.8-2.4,2.6c-0.9,0.9-1.9,1.7-2.7,2.3c-0.1,0.1-0.3,0.2-0.4,0.3l-0.2,0c-0.2,0-0.3,0-0.5,0c-1.7-0.3-3.1-0.7-4.4-1.2
			c-0.8-0.4-1.5-0.8-2.1-1.2c-1.5-1.3-3-2.7-4.2-4.2c-0.9-1.3-1.7-2.7-2.5-4.4c-1-2.6-1.8-5.4-2.7-8.5c-0.2-0.7-0.4-1.3-0.6-2
			c-0.5-1.7-1.1-3.7-1.4-5.7c-0.2-1.8-0.2-3.7-0.1-5.5l0-0.8c0-2.8,0-5.6,0.1-8.2c0.1-5,0.5-10.5,1.2-17.2c0.1-1.4-0.7-3-1.6-3.9
			c-1-1-2.4-1.6-3.9-1.6c-1.5,0-2.9,0.6-3.9,1.6c-1.2,1.2-1.5,2.6-1.6,3.9c-0.7,6.7-1.1,12.2-1.2,17.2c-0.1,2.8-0.1,5.6-0.1,8.2v0.3
			c0,2.8,0,5.5,0.4,8.3c0.3,2,0.9,4,1.4,5.9l0.3,1l0.2,0.7c0.6,2.1,1.3,4.5,2,6.7c1,3,2.1,5.5,3.4,7.8c0.6,1.1,1.4,2.2,2.2,3.1
			l0.5,0.6c0.8,1,1.7,1.9,2.7,2.8c1.7,1.6,3.3,2.9,4.9,3.8c2,1.2,4.4,2,7.3,2.6c1.4,0.3,3,0.6,4.5,0.6c1.4,0,2.6-0.2,3.7-0.7
			c1-0.4,1.8-0.8,2.8-1.5c0.4-0.3,0.8-0.6,1.1-0.9l0.4-0.3c0.5-0.4,0.9-0.7,1.4-1.1c2-1.8,3.8-3.7,5.4-5.9c1.3-1.8,2.3-3.7,3.4-5.6
			l0.6-1.2c1.2-2.2,2.2-4.5,3.1-6.8l0.5-1.1c1.1-2.6,2-4.9,2.7-7.2c0.7-2.3,1.3-4.7,1.8-6.8l0.1-0.5c0.7-3,1.2-6.1,1.5-9
			c0.1-0.8,0.2-1.6,0.3-2.4l0-0.1c0.5-3.4,1-6.8,1.4-10.2l0.1-0.9c0.3-2.2,0.7-4.7,1-7.2c0.2-1.3,0.3-2.7,0.4-4
			c0.1-0.8,0.2-1.5,0.2-2.3c0-0.2,0.1-0.3,0.1-0.5c0.7-3-1-6-3.9-6.8C230,259.9,229.5,259.8,229,259.8"/>
		<path class="st5" d="M234.3,259.3c-2.6,0-4.8,1.7-5.4,4.1c-0.4,1.5-0.5,3-0.7,4.5c0,0.5-0.1,0.9-0.1,1.4c-0.2,1.5-0.3,3-0.5,4.5
			c-0.4,2.9-0.8,5.9-1.2,8.8c-0.6,3.8-1.1,7.8-1.7,12.3c-0.2,1.4-0.5,3.2-0.9,4.8c-0.3,1.4-0.7,2.8-1.1,4.2l-0.3,1.3
			c-0.4,1.6-0.9,3.2-1.4,4.8c-0.4,1.2-0.9,2.5-1.4,3.6l-0.1,0.2l-0.1,0.2c-0.9,2-1.8,4.3-3,6.3L216,321c-1,1.8-2,3.7-3.2,5.5
			c-0.8,1-1.6,1.8-2.3,2.6c-0.9,0.9-2,1.8-2.7,2.3c-0.1,0.1-0.3,0.2-0.4,0.3l-0.2,0c-0.2,0-0.3,0-0.5,0c-1.7-0.3-3.1-0.7-4.4-1.2
			c-0.8-0.4-1.5-0.8-2.1-1.2c-1.5-1.3-2.9-2.7-4.2-4.2c-0.9-1.3-1.7-2.7-2.5-4.4c-1-2.6-1.8-5.4-2.7-8.5c-0.1-0.5-0.3-1.1-0.4-1.6
			l0-0.2l-0.1-0.2c-0.5-1.8-1.1-3.7-1.4-5.7c-0.2-1.8-0.2-3.6-0.1-5.4l0-0.9c0-2.9,0-5.6,0.1-8.2c0.1-5.1,0.5-10.6,1.2-17.2
			c0.1-1.4-0.7-3-1.6-3.9c-1-1-2.5-1.6-3.9-1.6c-1.5,0-2.9,0.6-3.9,1.6c-1.2,1.2-1.5,2.6-1.6,3.9c-0.7,6.7-1.1,12.2-1.2,17.2
			c-0.1,2.9-0.1,5.7-0.1,8.2v0.3c0,2.8,0,5.5,0.4,8.3c0.3,2.1,0.9,4,1.5,5.9l0.3,1l0.2,0.7c0.6,2,1.2,4.5,2,6.7
			c1,2.9,2.1,5.5,3.4,7.8c0.6,1.1,1.4,2.1,2.2,3.1l0.5,0.7c0.8,1,1.7,1.9,2.7,2.8c1.7,1.6,3.3,2.9,4.9,3.8c2,1.2,4.4,2,7.3,2.6
			c1.4,0.3,3,0.5,4.5,0.5c1.4,0,2.6-0.2,3.7-0.7c1-0.4,1.8-0.8,2.8-1.5c0.4-0.3,0.8-0.6,1.1-0.9l0.4-0.3c0.5-0.4,0.9-0.7,1.4-1.1
			c2-1.8,3.8-3.7,5.4-5.9c1.3-1.8,2.3-3.8,3.4-5.6l0.6-1.2c1.2-2.2,2.2-4.5,3.1-6.8l0.5-1.1c1.1-2.6,2-4.9,2.7-7.2
			c0.7-2.2,1.2-4.6,1.8-6.7l0.2-0.6c0.7-3,1.2-6.1,1.5-9c0.1-0.8,0.2-1.6,0.3-2.4l0-0.1c0.5-3.4,1-6.8,1.4-10.2l0.1-0.9l0.1-0.5
			l0-0.2c0.3-2,0.6-4.3,0.9-6.5c0.2-1.3,0.3-2.7,0.4-4c0.1-0.8,0.2-1.5,0.2-2.3c0-0.2,0.1-0.3,0.1-0.5c0.7-3-1-6-3.9-6.8
			C235.3,259.4,234.8,259.3,234.3,259.3"/>
		<path class="st6" d="M238.1,259.6c-2.6,0-4.8,1.7-5.4,4.1c-0.4,1.5-0.5,3-0.7,4.5c-0.1,0.6-0.1,1-0.1,1.4c-0.2,1.5-0.3,3-0.5,4.5
			c-0.4,2.9-0.8,5.9-1.2,8.8c-0.5,3.8-1.1,7.8-1.7,12.3c-0.2,1.4-0.5,3.2-0.9,4.8c-0.3,1.4-0.7,2.8-1.1,4.2l-0.3,1.3
			c-0.4,1.6-0.9,3.2-1.4,4.8c-0.4,1.2-1,2.5-1.4,3.5l0,0.1l-0.1,0.2l-0.1,0.2l0,0.1c-0.8,2-1.8,4.2-2.9,6.2l-0.3,0.6
			c-1,1.8-2,3.7-3.2,5.5c-0.8,0.9-1.6,1.8-2.3,2.6c-0.9,0.9-1.9,1.7-2.7,2.3c-0.1,0.1-0.3,0.2-0.4,0.3l-0.2,0c-0.2,0-0.3,0-0.5,0
			c-1.7-0.3-3.1-0.7-4.4-1.2c-0.8-0.4-1.5-0.8-2.1-1.2c-1.5-1.3-2.9-2.7-4.2-4.2c-0.9-1.3-1.7-2.7-2.5-4.4c-1-2.7-1.8-5.4-2.7-8.5
			c-0.1-0.4-0.2-0.9-0.4-1.3l0-0.1l0-0.2l0-0.2l-0.1-0.2c-0.5-1.7-1.1-3.7-1.4-5.6c-0.2-1.8-0.2-3.5-0.1-5.3l0-1
			c0-3.1,0-5.8,0.1-8.2c0.1-5.1,0.5-10.6,1.2-17.2c0.1-1.4-0.7-3-1.6-3.9c-1-1-2.5-1.6-3.9-1.6c-1.5,0-2.9,0.6-3.9,1.6
			c-1.2,1.2-1.5,2.6-1.6,3.9c-0.7,6.7-1.1,12.2-1.2,17.2c-0.1,3-0.1,5.7-0.1,8.2v0.3c0,2.8,0,5.5,0.4,8.3c0.3,2.1,0.9,4.1,1.5,6
			l0.3,1l0.2,0.7c0.5,1.7,1.2,4.4,2,6.7c1,2.9,2.1,5.5,3.4,7.8c0.6,1.1,1.4,2.2,2.2,3.1l0.5,0.7c0.8,1,1.7,1.8,2.7,2.8
			c1.7,1.6,3.3,2.9,5,3.8c2,1.2,4.4,2,7.3,2.6c1.5,0.3,3,0.6,4.5,0.6c1.4,0,2.6-0.2,3.7-0.7c1-0.4,1.7-0.8,2.8-1.5
			c0.4-0.3,0.8-0.6,1.1-0.9l0.4-0.3c0.5-0.4,0.9-0.7,1.4-1.1c2-1.8,3.8-3.7,5.4-5.9c1.3-1.8,2.4-3.8,3.4-5.7l0.6-1.2
			c1.2-2.2,2.2-4.5,3.1-6.8l0.5-1.1c1.1-2.6,2-4.9,2.7-7.2c0.6-2.1,1.2-4.4,1.7-6.4l0.1-0.2l0.2-0.7c0.7-3,1.2-6.1,1.6-9
			c0.1-0.8,0.2-1.6,0.3-2.4l0-0.1c0.5-3.4,1-6.8,1.4-10.2l0.1-0.9l0.1-0.5l0-0.2c0.3-2,0.6-4.3,0.9-6.5c0.2-1.3,0.3-2.7,0.4-4
			c0.1-0.8,0.2-1.5,0.3-2.3c0-0.2,0.1-0.3,0.1-0.5c0.7-3-1-6-3.9-6.8C239,259.6,238.6,259.6,238.1,259.6"/>
	</g>
	<g>
		<path class="st3" d="M313.3,254.5c-1,0.4-2.1,0.8-3,1.4c-1,0.6-2,1.3-2.8,2.2c-0.6,0.7-1.2,1.5-1.8,2.2c-1.4,1.8-2.9,3.6-4.2,5.5
			c-1.3,1.8-2.4,3.7-3.4,5.6c-1,1.8-1.9,3.7-2.8,5.6c-1.1,2.4-2.1,4.9-3.1,7.3c0.1-0.2,0.2-0.4,0.3-0.6c-0.5,1.3-1.1,2.6-1.6,3.9
			c-1.7,3.9-3.2,7.8-4.8,11.7c-1.5,3.8-2.8,7.6-4.2,11.5c-1.4,3.9-2.8,7.7-4.1,11.6c-1.5,4.4-2.8,8.9-4.5,13.3
			c-0.2,0.5-0.4,0.9-0.7,1.3c-1.4,2.6-0.7,6,2,7.5c2.5,1.5,6.1,0.7,7.5-2c1.5-2.9,2.5-6,3.5-9c0.7-2.1,1.4-4.1,2.1-6.2
			c1.2-3.8,2.6-7.6,4-11.3c1.3-3.6,2.6-7.3,3.9-11c1.3-3.5,2.7-7,4.2-10.4c0.9-2.1,1.8-4.2,2.7-6.3c-0.2,0.4-0.4,0.9-0.6,1.3
			c0.9-2,1.7-4,2.5-6.1c2.3-4.9,4.7-9.6,7.9-14c1-1.3,2-2.5,3-3.8c-0.3,0.4-0.6,0.7-0.9,1.1c0.4-0.5,0.8-0.9,1.2-1.4c0,0,0,0,0.1,0
			c1,1.4,2,2.7,2.9,4.2c1.3,1.9,2.4,3.9,3.5,5.8c2.2,3.8,4,7.8,5.7,11.8c-0.2-0.4-0.4-0.9-0.6-1.3c1.5,3.7,3.1,7.3,4.7,11
			c1.5,3.9,2.8,7.8,3.9,11.8c0.5,2,1.1,3.9,1.5,5.9c0.5,2.3,0.9,4.5,1.4,6.8c0.9,4.3,1.6,8.6,2.2,13c0.3,2,0.7,4,1.1,6
			c0.4,2,0.8,4,1.1,6c0.2,1.3,1.4,2.6,2.5,3.3c1.3,0.7,2.8,0.9,4.2,0.6c1.4-0.4,2.6-1.3,3.3-2.5c0.2-0.4,0.4-0.9,0.6-1.3
			c0.3-1,0.3-1.9,0-2.9c-0.8-4.7-1.8-9.3-2.5-13.9c-0.7-5-1.7-10-2.7-15c-1-4.8-2.3-9.6-3.7-14.3c-1.6-5.1-3.8-9.9-5.8-14.8l0.1,0.1
			c-1.5-3.5-2.9-6.9-4.5-10.3c-1.7-3.5-3.7-6.9-5.7-10.3c-0.9-1.5-2-3-3-4.4c-0.8-1.1-1.6-2.1-2.4-3.2c-0.7-0.8-1.4-1.5-2.3-2.1
			c-1.3-0.9-2.6-1.2-4.1-1.4c-0.2,0-0.4,0-0.6,0C315.3,254,314.3,254.2,313.3,254.5 M314.7,264.2l0.2,0.2
			C314.8,264.3,314.8,264.2,314.7,264.2 M316.8,265c0,0,0.1,0,0.1,0C316.9,265,316.9,265,316.8,265C316.8,265,316.8,265,316.8,265"
			/>
		<path class="st3" d="M291.9,299c-3,0.1-5.5,2.4-5.5,5.5c0,2.9,2.5,5.6,5.5,5.5c5-0.1,10,0.2,15,0.4c5.4,0.2,10.9,0.6,16.3,1.2
			c2.5,0.3,4.9,0.7,7.4,1c2.5,0.3,5,0.5,7.5,0.8c0.6,0.1,1.3,0.2,1.9,0.3c0.5,0.1,1,0.1,1.5,0.2c1,0,1.9-0.3,2.8-0.8
			c1.2-0.7,2.1-1.9,2.5-3.3c0.4-1.4,0.2-3-0.6-4.2c-0.6-1.1-2-2.3-3.3-2.5c-2.5-0.4-4.9-0.7-7.4-0.9c-1.8-0.2-3.6-0.3-5.4-0.5
			c-3.3-0.5-6.6-1-9.9-1.3c-3.3-0.3-6.7-0.5-10-0.7c-3.1-0.2-6.3-0.3-9.4-0.5c-2-0.1-4.1-0.2-6.1-0.2C293.8,299,292.8,299,291.9,299
			"/>
		<path class="st4" d="M320.3,253.2c-0.9,0-2,0.2-3.1,0.6c-1.3,0.4-2.2,0.9-3,1.4c-1.1,0.7-2.1,1.4-2.8,2.2
			c-0.6,0.7-1.2,1.5-1.8,2.2c-1.7,2.1-3,3.7-4.3,5.6c-1.1,1.6-2.3,3.5-3.4,5.6c-0.9,1.7-1.8,3.6-2.8,5.6c-0.8,1.8-1.6,3.6-2.3,5.3
			l-0.1,0.1c-0.2,0.6-0.5,1.2-0.7,1.8c0,0,0,0,0,0s0,0,0,0l0,0h0c0,0,0,0,0,0c-0.3,0.7-0.6,1.5-1,2.2l-0.5,1.1
			c-1.7,3.9-3.3,7.8-4.8,11.7c-1.5,3.8-2.9,7.7-4.2,11.5c-0.6,1.6-1.2,3.3-1.8,4.9c-0.8,2.2-1.6,4.4-2.4,6.7c-0.6,1.7-1.1,3.4-1.7,5
			c-0.8,2.6-1.8,5.5-2.8,8.2c-0.2,0.5-0.4,0.9-0.7,1.3c-1.5,2.7-0.6,6,2,7.6c0.8,0.5,1.8,0.7,2.8,0.7c2,0,3.9-1,4.8-2.7
			c1.4-2.6,2.3-5.4,3.2-8.1l0.3-0.9l0.5-1.5l0.1-0.3c0.5-1.5,1-3,1.5-4.5c1.1-3.4,2.4-6.9,3.4-9.7l0.6-1.6c0.6-1.7,1.2-3.4,1.8-5.1
			l0.3-1l0.3,0c3.1,0,6.3,0.2,9.3,0.3l0.1,0c1.1,0.1,2.2,0.1,3.3,0.2c6,0.3,11.4,0.6,16.3,1.2l2,0.3l0.3,0c1.6,0.2,3.3,0.5,5,0.7
			c1.8,0.2,3.5,0.4,5.5,0.6l1.1,0.1l0,0.1c0.1,0.4,0.2,0.8,0.3,1.2l0.3,1.5c0.3,1.7,0.7,3.5,1.1,5.2c0.9,4.3,1.6,8.8,2.2,13
			c0.2,1.6,0.6,3.2,0.9,4.7l0.3,1.3c0.3,1.7,0.7,3.6,1.1,6c0.2,1.4,1.5,2.7,2.5,3.3c0.8,0.5,1.8,0.8,2.8,0.8c0.5,0,1-0.1,1.5-0.2
			c1.4-0.4,2.6-1.3,3.3-2.5l0.3-0.7l0.3-0.7c0.3-1,0.3-2,0-2.9c-0.3-2.2-0.8-4.4-1.1-6.3l-0.1-0.4c-0.5-2.4-0.9-4.8-1.3-7.3
			c-0.8-5.1-1.8-10.2-2.7-15c-0.9-4.3-2.1-8.9-3.7-14.3c-1.3-4.3-3.1-8.4-4.8-12.4l-0.4-1l-0.6-1.4c-1.4-3.3-2.9-6.8-4.5-10.2
			c-1.8-3.8-3.9-7.3-5.7-10.3c-0.8-1.3-1.8-2.7-3-4.4l-0.3-0.4l-0.1-0.2c-0.6-0.9-1.3-1.8-2-2.6c-0.7-0.8-1.4-1.5-2.3-2.1
			c-1.4-1-2.8-1.3-4.1-1.4C320.8,253.2,320.6,253.2,320.3,253.2 M306.4,287.7c0.4-1,0.8-2,1.2-3l0.2-0.5l0.5-1.3
			c2.2-4.6,4.6-9.5,7.9-13.9c0.7-0.9,1.5-1.8,2.2-2.7c0.4-0.5,0.8-0.9,1.2-1.4c1,1.3,2,2.6,3,4.1c1.2,1.8,2.4,3.8,3.4,5.6l0.2,0.3
			c2.2,3.8,4.1,7.9,5.7,11.8l-0.5-1.3c1.5,3.7,3.1,7.3,4.6,11c0.7,1.7,1.3,3.4,1.8,5l-1.4-0.2c-0.8-0.1-1.5-0.2-2.3-0.2l-2.2-0.3
			c-2.5-0.4-5-0.7-7.6-1c-3.2-0.3-6.4-0.5-9.5-0.7l-0.6,0c-2.7-0.2-5.4-0.3-8.1-0.4l-1.3-0.1c-1,0-1.9-0.1-2.9-0.1
			c0.5-1.1,1-2.3,1.5-3.5l0.4-0.9C304.7,291.8,305.6,289.7,306.4,287.7L306.4,287.7z"/>
		<path class="st5" d="M325.6,252.7c-0.9,0-2,0.2-3.1,0.6c-1.2,0.4-2.2,0.9-3,1.4c-1.1,0.7-2.1,1.4-2.8,2.2
			c-0.6,0.7-1.2,1.5-1.7,2.2c-1.6,2-3,3.7-4.3,5.6c-1.1,1.6-2.2,3.5-3.4,5.6c-0.9,1.6-1.8,3.5-2.8,5.6c-0.8,1.6-1.5,3.3-2.2,5.1
			l-0.1,0.3l-0.1,0.1c-0.2,0.6-0.5,1.2-0.7,1.8c-0.3,0.7-0.6,1.4-0.9,2.2l-0.5,1.1c-1.8,4.1-3.4,8.2-4.8,11.7
			c-1.5,3.7-2.8,7.4-4.1,11.1l-0.1,0.2l-0.1,0.1c-0.6,1.6-1.2,3.3-1.8,4.9c-0.8,2.2-1.6,4.4-2.4,6.7c-0.6,1.7-1.1,3.4-1.7,5
			c-0.8,2.6-1.8,5.5-2.8,8.2c-0.2,0.5-0.4,0.9-0.7,1.3c-1.5,2.7-0.6,6.1,2,7.6c0.8,0.5,1.8,0.7,2.8,0.7c2.1,0,3.9-1,4.8-2.7
			c1.4-2.6,2.3-5.4,3.2-8.1l0.3-0.9l0.5-1.5l0.1-0.3c0.5-1.5,1-3,1.5-4.5c1.1-3.3,2.3-6.7,3.3-9.5l0.1-0.2l0.6-1.6
			c0.6-1.7,1.2-3.4,1.8-5.1l0.3-1l0.2,0c3.2,0,6.3,0.2,9.3,0.3l0.2,0c1.1,0.1,2.2,0.1,3.3,0.2c6,0.2,11.3,0.6,16.3,1.2l2,0.3l0.3,0
			c1.5,0.2,3.3,0.5,5,0.7c1.8,0.2,3.5,0.4,5.5,0.6l1.1,0.1l0,0.1c0.1,0.4,0.2,0.8,0.3,1.2l0.3,1.5l0.3,1.3c0.3,1.3,0.5,2.6,0.8,3.9
			c0.9,4.3,1.6,8.8,2.2,13c0.2,1.5,0.5,2.9,0.8,4.4l0.1,0.3l0.3,1.3c0.3,1.7,0.7,3.5,1.1,6c0.2,1.4,1.5,2.7,2.6,3.3
			c0.8,0.5,1.8,0.8,2.8,0.8c0.5,0,1-0.1,1.5-0.2c1.4-0.4,2.6-1.3,3.3-2.5l0.3-0.7l0.3-0.7c0.3-1,0.3-2,0-3c-0.3-2.1-0.8-4.3-1.1-6.2
			l-0.1-0.4l-0.1-0.3c-0.4-2.2-0.9-4.6-1.2-7c-0.8-5.1-1.7-10.1-2.7-14.9l0-0.1c-0.9-4.3-2.1-8.8-3.7-14.3
			c-1.3-4.3-3.1-8.4-4.8-12.4l-0.4-1l-0.6-1.4c-1.3-3.1-2.8-6.7-4.5-10.2c-1.8-3.8-3.9-7.3-5.7-10.3c-0.8-1.3-1.8-2.7-3-4.4
			l-0.3-0.4l-0.1-0.2c-0.6-0.9-1.3-1.8-2-2.6c-0.7-0.8-1.4-1.5-2.3-2.1c-1.4-1-2.8-1.3-4.1-1.4C326.1,252.7,325.8,252.7,325.6,252.7
			 M311.7,287.1c0.4-1,0.8-2,1.2-2.9l0.2-0.5l0.5-1.3c2.2-4.6,4.6-9.5,7.9-13.9c0.7-0.9,1.5-1.8,2.2-2.7c0.4-0.5,0.8-1,1.2-1.4
			c1,1.4,2,2.7,2.9,4.1c1.2,1.8,2.4,3.9,3.3,5.5l0.1,0.1l0.2,0.3c2.2,3.8,4.1,7.9,5.7,11.8l-0.5-1.3c1.6,4,3.3,8,4.6,11
			c0.7,1.8,1.3,3.5,1.8,5l-1.4-0.2c-0.8-0.1-1.5-0.2-2.3-0.2l-2.2-0.3l-0.2,0c-2.4-0.4-4.9-0.7-7.5-0.9c-3.1-0.3-6.3-0.5-9.5-0.7
			l-0.6,0c-2.6-0.2-5.4-0.3-8.1-0.4l-1.3-0.1c-1,0-1.9-0.1-2.9-0.1c0.5-1.1,1-2.3,1.5-3.4l0.4-0.9
			C310,291.3,310.9,289.2,311.7,287.1L311.7,287.1z"/>
		<path class="st6" d="M329.4,252.9c-0.9,0-2,0.2-3.1,0.6c-1.2,0.4-2.2,0.9-3,1.4c-1.1,0.7-2.1,1.4-2.8,2.2
			c-0.7,0.7-1.3,1.6-1.7,2.2c-1.7,2.1-3,3.8-4.3,5.6c-1.1,1.6-2.2,3.5-3.4,5.6c-0.9,1.7-1.8,3.5-2.8,5.6c-0.8,1.7-1.5,3.5-2.2,5.1
			l-0.1,0.3l-0.1,0.1c-0.2,0.6-0.5,1.2-0.7,1.8c-0.3,0.7-0.6,1.4-0.9,2.2l-0.5,1.1c-1.8,4-3.4,8.2-4.8,11.7
			c-1.4,3.5-2.7,7.1-3.9,10.6l-0.1,0.1l-0.1,0.3l-0.1,0.2l-0.1,0.1c-0.6,1.6-1.2,3.3-1.8,4.9c-0.8,2.2-1.6,4.5-2.4,6.7
			c-0.6,1.7-1.1,3.4-1.7,5l0,0.1c-0.8,2.4-1.8,5.4-2.8,8.1c-0.2,0.5-0.4,0.9-0.7,1.3c-1.5,2.7-0.6,6.1,2,7.6
			c0.8,0.5,1.8,0.7,2.8,0.7c2.1,0,3.9-1.1,4.8-2.7c1.4-2.6,2.3-5.4,3.2-8.1l0.3-0.9l0.5-1.5l0.1-0.3l0.1-0.3l0.1-0.3
			c0.4-1.3,0.9-2.5,1.3-3.8c1-3.1,2.2-6.4,3.2-9l0.1-0.3l0.1-0.2l0.1-0.2l0.6-1.6c0.6-1.7,1.2-3.4,1.8-5.1l0.3-1l0.2,0
			c3.2,0,6.3,0.2,9.3,0.3l0.2,0c1.1,0.1,2.2,0.1,3.3,0.2c6,0.2,11.3,0.6,16.3,1.2l2,0.3l0.3,0c1.5,0.2,3.3,0.5,5,0.7
			c1.8,0.2,3.5,0.4,5.5,0.6l1.1,0.1c0.1,0.5,0.2,0.9,0.2,1.3l0.3,1.5l0.3,1.3l0.3,1.4l0.5,2.5c0.9,4.4,1.6,9,2.2,13
			c0.2,1.4,0.5,2.9,0.8,4.2l0,0.2l0.1,0.3l0.3,1.3c0.3,1.6,0.7,3.5,1.1,6c0.2,1.4,1.5,2.7,2.6,3.3c0.8,0.5,1.8,0.8,2.8,0.8
			c0.5,0,1-0.1,1.5-0.2c1.4-0.4,2.6-1.3,3.3-2.6l0.3-0.7l0.3-0.7c0.3-1,0.3-2,0-3c-0.3-2.1-0.7-4.2-1.1-6l0-0.1l-0.1-0.5l-0.1-0.3
			l0-0.2l-0.1-0.3c-0.4-2-0.8-4.3-1.1-6.5c-0.7-5-1.7-9.8-2.6-14.5l-0.1-0.3l0-0.2c-0.9-4.3-2.1-8.9-3.7-14.3
			c-1.3-4.3-3.1-8.4-4.8-12.4l-0.4-1l-0.6-1.4c-1.4-3.3-2.9-6.8-4.5-10.2c-1.8-3.8-3.9-7.3-5.7-10.3c-0.8-1.3-1.7-2.7-3-4.4
			l-0.3-0.4l-0.1-0.2c-0.7-0.9-1.3-1.8-2-2.6c-0.7-0.8-1.4-1.5-2.3-2.1c-1.3-1-2.8-1.3-4.1-1.4C329.8,253,329.6,252.9,329.4,252.9
			 M315.5,287.4c0.4-1,0.8-1.9,1.2-2.9l0.2-0.5l0.5-1.3c2.2-4.6,4.6-9.5,7.9-13.9c0.7-0.9,1.5-1.8,2.2-2.7c0.4-0.5,0.8-1,1.2-1.4
			c1.1,1.4,2,2.7,2.9,4.1c1.2,1.8,2.3,3.8,3.2,5.4l0.1,0.1l0.1,0.1l0.2,0.3c2.2,3.8,4.1,7.9,5.7,11.8l-0.4-1.4
			c1.5,3.8,3.1,7.7,4.5,11c0.7,1.8,1.3,3.5,1.8,5l-1.4-0.2c-0.8-0.1-1.5-0.2-2.3-0.2l-2.2-0.3l-0.2,0c-2.3-0.3-4.9-0.7-7.5-0.9
			c-3.2-0.3-6.4-0.5-9.5-0.7l-0.6,0c-2.5-0.2-5-0.3-8.1-0.4l-1.2-0.1c-1,0-1.9-0.1-2.9-0.1c0.6-1.2,1.1-2.5,1.5-3.4l0.4-0.9
			C313.8,291.6,314.7,289.5,315.5,287.4L315.5,287.4z"/>
	</g>
	<g>
		<path class="st3" d="M400.9,254c-1.4,0.4-2.6,1.3-3.3,2.5c-0.7,1.2-1,2.9-0.5,4.2c0.6,1.6,1.1,3.2,1.5,4.8
			c0.1,0.6,0.2,1.1,0.3,1.7c0.5,4.9,0.3,9.9,0.3,14.9c0,2.5,0,4.9,0,7.4c0,2.5-0.3,5-0.4,7.6c-0.2,5-0.4,10-0.8,15
			c-0.4,5.1-0.9,10.2-1.2,15.3c-0.2,2.8-0.5,5.6-0.8,8.4c-0.1,0.7-0.2,1.3-0.2,2c0,0.4-0.1,0.7-0.1,1.1c-0.1,0.9,0,1.7,0.2,2.7
			c0.1,0.9,0.5,1.7,1,2.4c0.3,0.5,0.7,1,1.1,1.4c0.5,0.4,0.9,0.7,1.4,1.1c1.2,0.9,2.9,1,4.3,1.2c1.4,0.2,2.7,0.1,4.1,0.1
			c1.7,0,3.4,0,5.1,0c0.7,0,1.4,0,2.1,0c2.4,0,4.9,0,7.3,0.2c0,0-0.1,0-0.1,0c2.4,0.3,4.9,0.6,7.3,0.8c2.7,0.2,5.5,0.6,8.2,0.9
			c2.7,0.3,5.5,0.5,8.2,0.6c2.7,0.1,5.4,0.2,8,0.4c0.2,0,0.3,0,0.5,0.1c1,0,1.9-0.3,2.8-0.8c1.2-0.7,2.1-1.9,2.5-3.3
			c0.4-1.4,0.2-3-0.6-4.2c-0.6-1.1-2-2.3-3.3-2.5c-3-0.4-5.9-0.5-8.9-0.6c-2.6-0.1-5.3-0.3-7.9-0.5c-2.8-0.2-5.5-0.6-8.3-0.9
			c-2.5-0.3-5-0.4-7.5-0.7l0.3,0c-1.5-0.2-3.1-0.3-4.6-0.3c-1.8,0-3.5,0-5.3,0c-1.8,0-3.6,0-5.4,0c-0.5,0-0.9,0-1.4,0
			c0-0.2,0-0.3,0.1-0.5c0.1-1.2,0.3-2.4,0.4-3.5c0.3-2.3,0.4-4.6,0.6-6.9c0.4-5.1,0.8-10.1,1.2-15.2c0.4-5.1,0.4-10.1,0.8-15.2
			c0.2-2.6,0.3-5.2,0.4-7.8c0-2.4,0-4.8,0-7.3c0-3.1,0-6.1-0.1-9.2c0-1.5-0.2-3.1-0.3-4.6c-0.3-3-1-6-2.1-8.8
			c-0.5-1.4-1.2-2.5-2.5-3.3c-0.8-0.5-1.8-0.7-2.8-0.7C401.8,253.8,401.3,253.9,400.9,254 M406.5,339.3
			C406.5,339.4,406.5,339.4,406.5,339.3C406.5,339.4,406.5,339.4,406.5,339.3L406.5,339.3z"/>
		<path class="st4" d="M406.3,253.1c-0.5,0-1,0.1-1.5,0.2c-1.4,0.4-2.6,1.3-3.3,2.5c-0.6,1.1-1.1,2.9-0.6,4.3
			c0.7,1.9,1.1,3.3,1.5,4.8c0.1,0.5,0.2,1.1,0.3,1.7c0.4,3.9,0.3,7.9,0.3,11.8l0,1.1c0,0.7,0,1.3,0,2c0,2.5,0,4.9,0,7.4
			c0,1.5-0.1,3-0.2,4.4l0,0.2c-0.1,1-0.2,2-0.2,3c-0.1,1.2-0.1,2.4-0.2,3.7c-0.1,3.5-0.3,7.5-0.6,11.3c-0.1,1.4-0.2,2.9-0.4,4.3
			l0,0.2l0,0.3c-0.3,3.5-0.6,7-0.8,10.6c-0.2,2.4-0.4,4.8-0.7,7l-0.2,1.4c-0.1,0.7-0.2,1.3-0.2,2c0,0.4-0.1,0.7-0.1,1.1
			c-0.1,0.9,0,1.7,0.2,2.7c0.1,0.8,0.5,1.7,1,2.4c0.3,0.5,0.7,1,1.1,1.4c0.5,0.4,0.9,0.7,1.4,1.1c1.1,0.8,2.6,1,3.9,1.2l0.4,0
			c1.1,0.1,2.2,0.1,3.3,0.1l0.8,0c1,0,2,0,3.1,0l1,0l1,0h0.4l1.2,0h0.5c0.6,0,1.3,0,1.9,0c1.6,0,3.4,0,5.3,0.2
			c2.2,0.3,4.6,0.5,7.2,0.8c1.7,0.1,3.4,0.3,5.1,0.5l0.4,0l0.2,0c0.8,0.1,1.6,0.2,2.4,0.3c2.7,0.3,5.6,0.5,8.2,0.6
			c0.9,0,1.9,0.1,2.8,0.1l0.1,0c1.7,0.1,3.4,0.1,5.1,0.3l0.5,0.1c1,0,1.9-0.3,2.8-0.8c1.2-0.7,2.2-1.9,2.5-3.3
			c0.4-1.4,0.2-3-0.6-4.3c-0.6-1.1-1.9-2.3-3.3-2.5c-2.7-0.4-5.5-0.5-8.2-0.6l-0.7,0c-2.9-0.1-5.8-0.3-7.9-0.5
			c-1.8-0.2-3.5-0.3-5.4-0.6c-0.9-0.1-1.9-0.2-2.8-0.3c-1-0.1-2-0.2-3-0.3l-0.2,0c-1.3-0.1-2.7-0.2-4.1-0.4l0.2,0.1
			c-1.7-0.3-3.2-0.4-4.6-0.4l-2.6,0l-2.6,0c-1.8,0-3.6,0-5.4,0h-1.4c0-0.1,0.1-0.3,0.1-0.4l0.1-0.7l0.1-0.7c0.1-0.7,0.2-1.4,0.3-2.1
			c0.2-1.7,0.3-3.5,0.4-5.4l0.1-1.5c0.2-2.2,0.3-4.5,0.5-6.7l0.1-0.8c0.2-2.5,0.4-5.1,0.6-7.6c0.2-2.7,0.3-5.4,0.4-8.1l0-0.4
			c0.1-2.3,0.2-4.5,0.3-6.8l0.1-1c0.2-2.4,0.3-4.6,0.3-6.7c0-1.7,0-3.4,0-5.1l0-2.1c0-3,0-6.1-0.1-9.2c0-1.6-0.2-3.2-0.3-4.6
			c-0.3-3-1-5.9-2.1-8.8c-0.6-1.6-1.4-2.6-2.5-3.3C408.3,253.3,407.3,253.1,406.3,253.1"/>
		<path class="st5" d="M411.6,252.5c-0.5,0-1,0.1-1.5,0.2c-1.4,0.4-2.6,1.3-3.3,2.5c-0.7,1.1-1.1,2.9-0.6,4.3
			c0.7,1.9,1.1,3.3,1.5,4.8c0.1,0.5,0.2,1.1,0.3,1.7c0.4,3.9,0.3,7.9,0.3,11.7l0,1.2c0,0.7,0,1.3,0,2c0,2.5,0,4.9,0,7.4
			c0,1.5-0.1,3.1-0.2,4.4l0,0.2c-0.1,1-0.2,2-0.2,3c-0.1,1.2-0.1,2.4-0.2,3.7l0,0.3c-0.1,3.4-0.3,7.3-0.6,11c-0.1,1.3-0.2,2.7-0.3,4
			l0,0.1l0,0.2l0,0.2l0,0.3l0,0.3l0,0.3c-0.3,3.3-0.5,6.7-0.8,10c-0.1,2.2-0.4,4.6-0.6,6.6l0,0.2l0,0.2l-0.2,1.4
			c-0.1,0.7-0.2,1.3-0.2,2c0,0.4-0.1,0.7-0.1,1.1c-0.1,0.9,0,1.7,0.2,2.7c0.1,0.8,0.5,1.7,1,2.4c0.3,0.5,0.7,1,1.1,1.4
			c0.5,0.4,0.9,0.7,1.4,1.1c1.1,0.8,2.6,1,3.9,1.2l0.4,0.1c1.1,0.1,2.2,0.1,3.3,0.1l0.8,0l1,0l1,0l1,0l1,0l1,0h0.4l1.2,0h0.5
			c0.6,0,1.3,0,1.9,0c1.6,0,3.4,0,5.3,0.2c2.3,0.3,4.6,0.5,7.2,0.8c1.6,0.1,3.2,0.3,4.9,0.5l0.2,0l0.4,0.1l0.2,0l1.2,0.1l1.2,0.1
			c2.7,0.3,5.3,0.4,8.2,0.6c0.9,0,1.9,0.1,2.8,0.1l0.1,0c1.7,0.1,3.4,0.1,5.1,0.3l0.5,0.1c1,0,1.9-0.3,2.8-0.8
			c1.2-0.7,2.2-1.9,2.5-3.3c0.4-1.4,0.2-3-0.6-4.3c-0.6-1.1-1.9-2.4-3.3-2.6c-2.7-0.4-5.5-0.5-8.1-0.6l-0.8,0
			c-3-0.1-5.9-0.4-7.9-0.5c-1.6-0.1-3.2-0.3-5.4-0.6c-0.9-0.1-1.9-0.2-2.8-0.3c-1-0.1-2-0.2-3-0.3l-0.2,0l-0.2,0l-0.2,0
			c-1.2-0.1-2.4-0.2-3.6-0.4l0.1,0.1c-1.6-0.3-3.1-0.4-4.6-0.4l-2.6,0l-2.6,0c-1.8,0-3.6,0-5.4,0H416c0.1-0.1,0.1-0.3,0.1-0.4
			l0.1-0.7l0.1-0.7c0.1-0.7,0.2-1.4,0.3-2.1c0.2-1.8,0.3-3.6,0.4-5.4l0.1-1.5c0.1-1.9,0.3-3.8,0.4-5.8l0.1-1l0.1-0.8
			c0.2-2.5,0.4-5.1,0.6-7.6c0.2-2.6,0.3-5.2,0.4-7.7l0-0.3l0-0.4c0.1-2,0.2-4.4,0.3-6.8l0.1-1c0.2-2.4,0.3-4.6,0.3-6.7
			c0-1.7,0-3.4,0-5.1l0-2.1c0-3,0-6.1-0.1-9.2c0-1.7-0.2-3.3-0.3-4.6c-0.3-3-1-5.9-2.1-8.9c-0.6-1.6-1.4-2.6-2.5-3.3
			C413.5,252.8,412.6,252.5,411.6,252.5"/>
		<path class="st6" d="M415.3,252.8c-0.5,0-1,0.1-1.5,0.2c-1.4,0.4-2.6,1.3-3.3,2.6c-0.7,1.1-1.1,2.9-0.6,4.3
			c0.7,1.9,1.1,3.3,1.5,4.8c0.1,0.5,0.2,1.1,0.3,1.7c0.4,3.9,0.3,7.8,0.3,11.6l0,1.3v0.2l0,0.1c0,0.6,0,1.1,0,1.7c0,2.5,0,4.9,0,7.4
			c0,1.6-0.1,3.3-0.2,4.4l0,0.2c-0.1,1-0.2,2-0.2,3c-0.1,1.2-0.1,2.4-0.2,3.7l0,0.3c-0.1,3-0.3,7.2-0.6,11c-0.1,0.9-0.1,1.7-0.2,2.6
			l-0.1,0.6l-0.1,0.8l0,0.1l0,0.2l0,0.2l0,0.3l0,0.3l0,0.3l0,0.2c-0.3,3-0.5,6.5-0.7,9.8c-0.1,2.2-0.4,4.5-0.6,6.5l0,0.3l0,0.2
			l-0.2,1.4c-0.1,0.7-0.2,1.3-0.2,2c0,0.4-0.1,0.7-0.1,1.1c-0.1,0.9,0,1.7,0.2,2.7c0.1,0.8,0.5,1.7,1,2.5c0.3,0.5,0.7,1,1.1,1.4
			c0.5,0.4,0.9,0.7,1.4,1.1c1.1,0.8,2.6,1,3.9,1.2l0.4,0.1c1.1,0.1,2.2,0.1,3.3,0.1l0.8,0l1,0l1,0l1,0l1,0l1,0h0.4l1.2,0h0.5
			c0.6,0,1.3,0,1.9,0c1.7,0,3.4,0,5.3,0.2c2.3,0.3,4.7,0.5,7.2,0.8c1.6,0.1,3.2,0.3,4.9,0.5l0.2,0l0.4,0.1l0.2,0l1.2,0.1l1.2,0.1
			c2.7,0.3,5.4,0.4,8.2,0.6c0.9,0,1.9,0.1,2.8,0.1l0.1,0c1.7,0.1,3.4,0.1,5.1,0.3l0.5,0.1c1,0,1.9-0.3,2.8-0.8
			c1.2-0.7,2.2-1.9,2.6-3.3c0.4-1.4,0.2-3-0.6-4.3c-0.6-1.1-2-2.4-3.3-2.6c-2.7-0.4-5.5-0.5-8.1-0.6l-0.8,0c-3-0.1-5.9-0.4-7.9-0.5
			c-1.6-0.1-3.2-0.3-5.4-0.6c-0.9-0.1-1.9-0.2-2.8-0.3c-1-0.1-2-0.2-3-0.3l-0.2,0l-0.2,0l-0.2,0c-1.2-0.1-2.5-0.2-3.6-0.4l0.1,0.1
			c-1.5-0.3-3-0.5-4.6-0.5l-2.6,0l-2.6,0c-1.8,0-3.6,0-5.4,0h-1.4c0.1-0.1,0.1-0.2,0.1-0.4l0.1-0.7l0.1-0.7c0.1-0.7,0.2-1.4,0.3-2.1
			c0.2-1.7,0.3-3.4,0.4-5.4l0.1-1.5c0.1-1.9,0.3-3.8,0.4-5.8l0.1-1l0.1-0.8c0.2-2.5,0.4-5.1,0.6-7.6c0.2-2.6,0.3-5.2,0.4-7.7l0-0.3
			l0-0.4c0.1-2.6,0.2-4.8,0.3-6.8l0.1-1c0.2-2.4,0.3-4.6,0.3-6.7c0-1.7,0-3.4,0-5.1l0-2.1c0-3,0-6.2-0.1-9.2c0-1.7-0.2-3.3-0.3-4.6
			c-0.3-3-1-5.9-2.1-8.9c-0.6-1.6-1.4-2.6-2.6-3.3C417.3,253,416.3,252.8,415.3,252.8"/>
	</g>
</g>
<g>
	<g>
		<path class="st3" d="M246,134.8c-0.4,0.2-0.9,0.4-1.3,0.6c-0.8,0.5-1.5,1.1-2,2c-0.9,1.2-1.8,2.5-2.6,3.8
			c-1.4,2.1-2.4,4.4-3.3,6.7c-2.6,6-4.9,12.1-7.4,18.2c-1.7,3.8-3.5,7.6-5.2,11.4c-1,2-1.9,4.1-2.9,6.1c-0.8,1.8-1.5,3.7-2.4,5.5
			c-2.1,4.1-4.3,8.2-6.5,12.3c-0.2,0.4-0.5,0.9-0.7,1.3c-0.1-0.2-0.1-0.4-0.2-0.6c-1.1-3.5-1.8-7-2.6-10.5c-1.7-7.3-3.2-14.6-4.4-22
			c-0.7-6.1-1.3-12.1-2-18.2c-0.1-0.5-0.1-1-0.2-1.5c-0.3-0.9-0.7-1.7-1.4-2.4c-1-1-2.4-1.6-3.9-1.6s-2.9,0.6-3.9,1.6
			c-0.9,0.9-1.8,2.5-1.6,3.9c0.7,5.9,1.3,11.9,2,17.8c0.7,5.7,1.9,11.2,3,16.8c1,5.2,2.2,10.4,3.5,15.5c0.6,2.4,1.4,4.7,2.1,7.1
			c0.9,2.8,1.6,5.9,3,8.6c0.6,1.1,1.7,2.1,2.8,2.8c1,0.6,1.9,0.7,3,0.8c0.6,0,1.3-0.1,1.9-0.2c0.4-0.1,1.3-0.5,1.7-0.8
			c1.1-0.8,1.4-1.1,2.2-2.2c0.3-0.4,0.6-0.9,0.8-1.4c1.1-2.2,2-4.6,3.2-6.8c2.5-4.8,5.1-9.5,7.6-14.3c1.1-2.2,2-4.4,3-6.6
			c1.1-2.3,2.1-4.6,3.2-6.9c2.6-5.3,5-10.7,7.1-16.2c1.6-4,3.2-8,4.8-11.9c0.3-0.7,0.6-1.3,0.8-2c1.3-3,3.1-5.9,5.1-8.5
			c0.8-1.1,0.9-3,0.6-4.2c-0.4-1.4-1.3-2.6-2.5-3.3c-0.8-0.5-1.8-0.8-2.8-0.8C247,134.6,246.5,134.6,246,134.8"/>
		<path class="st4" d="M251.5,133.8c-0.5,0-1,0.1-1.5,0.2l-0.7,0.3l-0.7,0.3c-0.8,0.5-1.5,1.2-2,2c-0.7,1-1.4,2-2.1,3l-0.1,0.1
			l-0.5,0.7c-1.5,2.2-2.5,4.7-3.3,6.7c-1.4,3.3-2.8,6.7-4.1,10l-0.2,0.5c-1,2.5-2,5.1-3.1,7.6c-1.5,3.4-3,6.7-4.6,10l-0.7,1.4
			c-1,2-1.9,4.1-2.9,6.1c-0.3,0.7-0.6,1.4-0.9,2l0,0.1l0,0.1c-0.5,1.1-0.9,2.2-1.5,3.2c-1.4,2.8-3,5.7-4.5,8.5l-0.1,0.2
			c-0.6,1.2-1.3,2.4-1.9,3.6l-0.7,1.3l-0.1-0.4l0-0.1c-0.8-2.8-1.5-5.6-2.1-8.4l-0.5-2.1c-1.9-7.9-3.3-15.1-4.4-22
			c-0.3-2.4-0.5-4.9-0.8-7.3l0-0.2c-0.4-3.5-0.8-7.1-1.2-10.6c-0.1-0.5-0.1-1-0.2-1.5c-0.3-0.9-0.7-1.8-1.4-2.4
			c-1-1-2.5-1.6-3.9-1.6c-1.5,0-2.9,0.6-3.9,1.6c-0.9,0.9-1.8,2.5-1.6,3.9c0.4,3.2,0.8,6.4,1.1,9.6l0.1,0.6l0,0.1
			c0.3,2.5,0.5,5,0.8,7.5c0.6,4.9,1.6,9.8,2.5,14.5l0.5,2.3c1.2,5.9,2.6,11.6,3.5,15.5c0.4,1.7,1,3.4,1.4,4.9l0.1,0.4
			c0.2,0.6,0.4,1.2,0.6,1.8c0.2,0.6,0.4,1.2,0.5,1.8c0.7,2.3,1.3,4.7,2.4,6.7c0.6,1.1,1.6,2.1,2.8,2.8c1,0.6,1.9,0.7,3,0.8
			c0.1,0,0.2,0,0.2,0c0.5,0,1-0.1,1.4-0.2l0.3,0c0.4-0.1,1.3-0.5,1.7-0.8c1.1-0.8,1.4-1.1,2.2-2.2c0.3-0.5,0.6-0.9,0.8-1.4
			c0.5-1,1-2.1,1.5-3.1c0.5-1.1,1.1-2.4,1.7-3.6c1-1.9,2-3.7,3-5.6c1.6-3,3.1-5.9,4.6-8.8c0.7-1.4,1.3-2.8,1.9-4.2l0.2-0.5
			c0.3-0.6,0.6-1.3,0.8-1.9c1.1-2.3,2.2-4.7,3.2-6.9c2.9-6.1,5.2-11.3,7.1-16.2c1.6-4.1,3.3-8.3,4.8-11.9c0.3-0.7,0.6-1.3,0.8-2
			c1.3-2.9,3-5.8,5.1-8.5c0.8-1.1,0.9-3,0.6-4.3c-0.4-1.4-1.3-2.6-2.5-3.3C253.4,134.1,252.4,133.8,251.5,133.8"/>
		<path class="st5" d="M256.7,133.3c-0.5,0-1,0.1-1.5,0.2l-0.7,0.3L254,134c-0.8,0.5-1.5,1.2-2,2c-0.7,0.9-1.4,1.9-2.1,3l-0.1,0.1
			l-0.5,0.7c-1.5,2.2-2.5,4.8-3.3,6.7c-1.4,3.2-2.7,6.5-4,9.7l-0.1,0.4l-0.2,0.6c-1,2.5-2,5.1-3.1,7.6c-1.5,3.5-3.2,7.1-4.6,10
			l-0.7,1.4c-1,2-1.9,4.1-2.9,6.1c-0.3,0.5-0.5,1.1-0.7,1.7l-0.1,0.2l-0.1,0.2l0,0.1l-0.1,0.1c-0.4,1.1-0.9,2.2-1.5,3.2
			c-1.4,2.8-2.9,5.6-4.4,8.4l-0.2,0.3c-0.6,1.2-1.3,2.4-1.9,3.6l-0.7,1.3l-0.1-0.4l0-0.1c-0.8-2.8-1.5-5.6-2.1-8.3l-0.5-2.2
			c-1.9-7.9-3.3-15.1-4.4-22c-0.3-2.4-0.5-4.9-0.8-7.3l0-0.2l0-0.2l0-0.1c-0.4-3.4-0.7-6.9-1.2-10.3c-0.1-0.5-0.1-1-0.2-1.5
			c-0.3-0.9-0.7-1.8-1.4-2.5c-1-1-2.5-1.6-3.9-1.6c-1.5,0-2.9,0.6-3.9,1.6c-0.9,0.9-1.8,2.5-1.6,3.9c0.4,3.1,0.7,6.2,1.1,9.6
			l0.1,0.6l0,0.1l0,0.2c0.3,2.4,0.5,4.9,0.8,7.3c0.6,4.9,1.5,9.7,2.5,14.4l0,0.1l0.5,2.3c0.9,4.6,2.1,9.6,3.5,15.5
			c0.4,1.7,0.9,3.4,1.4,4.9l0.1,0.5c0.2,0.6,0.4,1.2,0.6,1.8c0.2,0.6,0.4,1.2,0.5,1.8c0.7,2.3,1.3,4.7,2.5,6.7
			c0.6,1.1,1.6,2.1,2.8,2.8c1,0.6,1.9,0.8,3,0.8c0.1,0,0.2,0,0.2,0c0.5,0,1-0.1,1.4-0.2l0.3-0.1c0.5-0.1,1.3-0.5,1.7-0.8
			c1.1-0.8,1.4-1.1,2.2-2.2c0.3-0.5,0.6-0.9,0.8-1.4c0.5-1,1-2,1.4-3l0.1-0.1l0.1-0.2c0.5-1.1,1-2.3,1.6-3.4
			c0.9-1.7,1.8-3.5,2.8-5.2l0.2-0.4c1.5-2.8,3.1-5.8,4.6-8.8c0.7-1.4,1.3-2.8,1.9-4.1l0.2-0.6c0.3-0.6,0.6-1.3,0.8-1.9
			c1-2.2,2.1-4.6,3.2-6.9c3-6.2,5.2-11.3,7.1-16.2c1.5-3.8,3.1-7.6,4.5-11l0.3-0.7l0.1-0.2c0.3-0.7,0.6-1.3,0.8-2
			c1.3-2.9,3-5.8,5.1-8.5c0.8-1.1,0.9-3,0.6-4.3c-0.4-1.4-1.3-2.6-2.5-3.3C258.7,133.5,257.7,133.3,256.7,133.3"/>
		<path class="st6" d="M260.5,133.5c-0.5,0-1,0.1-1.5,0.2l-0.7,0.3l-0.7,0.3c-0.8,0.5-1.5,1.2-2,2c-0.7,0.9-1.3,1.9-2.1,3l-0.1,0.1
			l-0.5,0.7c-1.5,2.2-2.6,4.8-3.3,6.7c-1.4,3.2-2.7,6.4-3.9,9.5l0,0.1l-0.2,0.5l-0.2,0.5c-1,2.5-2,5.1-3.1,7.6
			c-1.5,3.4-3.2,7-4.4,9.6l-0.2,0.4l-0.7,1.4c-1,2-1.9,4.1-2.9,6.1c-0.3,0.5-0.5,1.1-0.7,1.7l-0.1,0.2l-0.1,0.2l0,0.1l-0.1,0.1
			l-0.1,0.1c-0.4,1-0.9,2.1-1.4,3.1c-1.4,2.7-2.8,5.4-4.4,8.4l-0.2,0.3c-0.6,1.2-1.3,2.4-1.9,3.6l-0.7,1.3l0-0.4l-0.1-0.1
			c-0.8-2.8-1.5-5.5-2.1-8.2l0-0.1l-0.5-2.2c-1.8-7.8-3.3-15-4.4-22c-0.3-2.4-0.5-4.9-0.8-7.3l0-0.2l0-0.2l0-0.1
			c-0.3-3.2-0.7-6.8-1.2-10.3c-0.1-0.5-0.1-1-0.2-1.5c-0.3-1-0.8-1.8-1.4-2.5c-1-1-2.5-1.6-3.9-1.6c-1.5,0-2.9,0.6-3.9,1.6
			c-0.9,0.9-1.8,2.5-1.6,3.9c0.4,3.2,0.8,6.6,1.1,9.6l0.1,0.6l0,0.1l0,0.2c0.3,2.4,0.5,4.9,0.8,7.3c0.6,4.9,1.5,9.6,2.5,14.3l0,0.1
			l0,0.1l0.5,2.3c0.9,4.5,2.1,9.6,3.5,15.5c0.4,1.7,1,3.5,1.4,4.9l0.1,0.5l0.2,0.5l0.4,1.3c0.2,0.6,0.4,1.2,0.5,1.8
			c0.7,2.3,1.3,4.7,2.5,6.7c0.6,1.1,1.6,2.1,2.8,2.8c1,0.6,1.9,0.8,3,0.8c0.1,0,0.2,0,0.2,0c0.5,0,1-0.1,1.3-0.2l0.4-0.1
			c0.5-0.1,1.3-0.5,1.7-0.8c1.1-0.8,1.4-1.1,2.2-2.2c0.3-0.5,0.6-0.9,0.8-1.4c0.5-1,0.9-2,1.4-3l0.1-0.2l0.1-0.2l0.1-0.1
			c0.5-1,1-2.2,1.6-3.3c0.9-1.7,1.8-3.5,2.8-5.2l0.2-0.4c1.8-3.4,3.2-6,4.6-8.8c0.7-1.4,1.3-2.8,1.9-4.1l0.3-0.6
			c0.3-0.6,0.6-1.3,0.8-1.9c1.1-2.3,2.2-4.7,3.2-6.9c3-6.2,5.3-11.4,7.1-16.2c1.4-3.6,2.9-7.3,4.2-10.5l0.2-0.4l0.1-0.1l0.3-0.7
			l0.1-0.2l0.6-1.4l0.3-0.6c1.3-2.9,3-5.8,5.1-8.5c0.9-1.1,0.9-3,0.6-4.3c-0.4-1.4-1.3-2.6-2.6-3.3
			C262.5,133.8,261.5,133.5,260.5,133.5"/>
	</g>
	<g>
		<path class="st3" d="M302.7,132.7c-1.1,1.1-1.5,2.4-1.6,3.9c-0.3,3.8-0.7,7.6-1.2,11.4c-0.4,2.7-0.8,5.4-0.9,8.2
			c-0.1,2.6-0.4,5.2-0.7,7.9c-0.2,2.6-0.5,5.2-0.7,7.7c-0.2,2.8-0.3,5.5-0.4,8.3c-0.2,5.2-0.4,10.4-0.9,15.5
			c-0.3,2.7-0.6,5.4-0.9,8.1c-0.2,2.6-0.3,5.2-0.4,7.8c0,1.8-0.1,3.6-0.2,5.4c0,0.1-0.1,0.2-0.1,0.3c-0.5,1.3-0.1,3.1,0.6,4.2
			c0.7,1.2,1.9,2.1,3.3,2.5c1.4,0.4,3,0.2,4.2-0.6c1.3-0.8,2-1.9,2.5-3.3c0.5-1.4,0.5-3.1,0.6-4.6c0.1-1.2,0.1-2.3,0.1-3.5
			c0.1-2.4,0.1-4.7,0.3-7.1c0.5-5.4,1.2-10.8,1.5-16.3c0.3-5.3,0.5-10.5,0.8-15.8c0.1-2.6,0.4-5.1,0.6-7.7c0.3-2.8,0.6-5.6,0.8-8.4
			c0.1-1.4,0.2-2.8,0.3-4.2c0.8-5.3,1.5-10.7,1.9-16.1c0.1-1.4-0.6-2.9-1.6-3.9c-1-1-2.4-1.6-3.9-1.6S303.8,131.7,302.7,132.7"/>
		<path class="st4" d="M310.6,130.4c-1.5,0-2.9,0.6-3.9,1.6c-1,1-1.5,2.2-1.6,3.9c-0.2,3.4-0.6,6.9-1.2,11.4
			c-0.4,2.7-0.8,5.4-0.9,8.2c-0.1,1.9-0.3,3.8-0.5,5.7l-0.1,1.1l-0.1,1l-0.2,1.9c-0.2,2-0.4,3.9-0.5,5.9c-0.1,2-0.2,4-0.3,6.1
			l-0.1,2.2l-0.1,2.8c-0.2,4.1-0.4,8.4-0.8,12.7c-0.1,1-0.2,2-0.3,3l0,0.1c-0.2,1.6-0.4,3.3-0.5,5c-0.2,2.3-0.3,4.8-0.4,7.8l0,1
			c0,1.4-0.1,2.9-0.2,4.4c0,0.1-0.1,0.2-0.1,0.3c-0.5,1.4-0.1,3.1,0.6,4.3c0.7,1.2,1.9,2.2,3.3,2.5c0.5,0.1,1,0.2,1.5,0.2
			c1,0,2-0.3,2.8-0.8c1.2-0.7,1.9-1.7,2.5-3.3c0.4-1.1,0.5-2.4,0.5-3.7c0-0.3,0-0.6,0-0.9c0.1-1.2,0.1-2.3,0.1-3.5l0-0.7
			c0.1-2.2,0.1-4.3,0.3-6.4c0.2-2.1,0.4-4.1,0.6-6.2c0.4-3.3,0.7-6.7,0.9-10.1c0.1-2.2,0.2-4.4,0.3-6.6l0-0.7
			c0.1-2.8,0.3-5.6,0.4-8.4c0.1-2.5,0.4-5.1,0.6-7.1l0.1-0.6c0.1-0.7,0.1-1.4,0.2-2.1l0.1-0.6c0.2-1.8,0.4-3.8,0.5-5.7
			c0.1-1.6,0.2-2.9,0.3-4.2c0.9-6.3,1.5-11.4,1.9-16.1c0.1-1.3-0.5-2.8-1.6-3.9C313.5,131,312.1,130.4,310.6,130.4"/>
		<path class="st5" d="M315.9,129.9c-1.5,0-2.9,0.6-3.9,1.6c-1,1-1.5,2.2-1.6,3.9c-0.2,3.3-0.6,6.8-1.2,11.4l0,0.1
			c-0.4,2.6-0.8,5.4-0.9,8.1c-0.1,1.9-0.3,3.8-0.5,5.7l-0.1,1.1l-0.1,1.1l-0.2,1.9c-0.2,1.7-0.4,3.9-0.5,5.9c-0.1,2-0.2,4-0.3,6.1
			l-0.1,2.2l-0.1,2.8c-0.2,3.9-0.4,8.3-0.8,12.7c-0.1,1-0.2,2-0.3,3l0,0.1l0,0.1c-0.2,1.7-0.4,3.3-0.5,4.9c-0.2,2.4-0.3,4.9-0.4,7.8
			l0,1l0,0.2c0,1.5-0.1,2.9-0.2,4.3c0,0.1-0.1,0.2-0.1,0.3c-0.5,1.4-0.1,3.2,0.6,4.3c0.7,1.2,1.9,2.2,3.3,2.5c0.5,0.1,1,0.2,1.5,0.2
			c1,0,2-0.3,2.8-0.8c1.2-0.7,1.9-1.7,2.5-3.3c0.4-1.1,0.5-2.4,0.5-3.7l0-0.2c0-0.2,0-0.4,0-0.7c0.1-1.2,0.1-2.3,0.1-3.5l0-0.7
			c0.1-2.2,0.1-4.3,0.3-6.4c0.2-2,0.4-4.1,0.6-6.1l0-0.1c0.3-3.3,0.7-6.7,0.9-10c0.1-2.2,0.2-4.4,0.3-6.6l0-0.7
			c0.1-2.8,0.3-5.6,0.4-8.4c0.1-2.5,0.4-5.1,0.6-7.1l0.1-0.6c0-0.5,0.1-1.1,0.2-1.6l0.1-0.5l0.1-0.6c0.2-1.6,0.4-3.7,0.5-5.7
			c0.1-1.5,0.2-2.8,0.3-4.2c0.9-6.3,1.5-11.4,1.9-16.1c0.1-1.3-0.5-2.8-1.6-3.9C318.8,130.5,317.4,129.9,315.9,129.9"/>
		<path class="st6" d="M319.7,130.1c-1.5,0-2.9,0.6-3.9,1.6c-1,1-1.5,2.2-1.6,3.9c-0.2,3.3-0.6,6.8-1.2,11.4l0,0.1
			c-0.4,2.7-0.8,5.4-0.9,8.1c-0.1,2-0.3,4-0.5,5.7l-0.1,1.1l-0.1,1.1l-0.2,1.9c-0.2,1.7-0.4,3.9-0.5,5.9c-0.1,2-0.2,4-0.3,6.1
			l-0.1,2.2l-0.1,2.8c-0.2,3.7-0.3,8.2-0.8,12.7c-0.1,1-0.2,2-0.3,3l0,0.1l0,0.1l0,0.2c-0.2,1.7-0.4,3.2-0.5,4.7
			c-0.2,2.5-0.3,5-0.4,7.8l0,1l0,0.2c0,1.3-0.1,2.8-0.2,4.3c0,0.1,0,0.2-0.1,0.3c-0.5,1.4-0.1,3.2,0.6,4.3c0.7,1.2,1.9,2.2,3.3,2.6
			c0.5,0.1,1,0.2,1.5,0.2c1,0,2-0.3,2.8-0.8c1.2-0.7,1.9-1.7,2.6-3.3c0.4-1.1,0.5-2.4,0.5-3.6l0-0.3c0-0.2,0-0.4,0-0.7
			c0.1-1.2,0.1-2.3,0.1-3.5l0-0.7c0-2.3,0.1-4.3,0.3-6.4c0.2-2,0.4-4.1,0.6-6.1l0-0.1l0-0.2c0.3-3.2,0.7-6.5,0.9-9.8
			c0.1-2.2,0.2-4.4,0.3-6.6l0-0.7c0.1-2.8,0.3-5.6,0.4-8.4c0.1-2.6,0.4-5.3,0.6-7.1l0.1-0.6c0-0.3,0.1-0.7,0.1-1l0-0.3l0-0.3
			l0.1-0.5l0.1-0.6c0.2-1.6,0.4-3.7,0.5-5.7c0.1-1.5,0.2-2.8,0.3-4.2c0.9-6.3,1.5-11.4,1.9-16.1c0.1-1.3-0.5-2.8-1.6-3.9
			C322.6,130.7,321.1,130.1,319.7,130.1"/>
	</g>
	<g>
		<path class="st3" d="M383.9,133.2c-1.1,0.1-2.1,0.2-3.2,0.4c-1.6,0.2-3.1,0.9-4.6,1.6c-1.2,0.6-2.3,1.4-3.4,2.3
			c-0.8,0.7-1.6,1.4-2.3,2.3c-1.1,1.3-2.1,2.7-2.9,4.1c-1.4,2.4-2.6,5.1-3.2,7.9c-0.1,0.6-0.2,1.1-0.3,1.7c-0.3,1.8-0.3,3.4,0,5.2
			c0.4,2.4,1.5,4.7,2.9,6.6c1.2,1.7,2.6,3.1,4.3,4.3c1.1,0.8,2.3,1.6,3.4,2.4c2.2,1.4,4.3,2.9,6.3,4.5c0.1,0.1,0.1,0.1,0.2,0.2
			c3.8,3.1,7.6,6.2,11.2,9.5c1.8,1.7,3.5,3.6,5,5.4c1.4,1.7,2.9,3.4,4.3,5.1c0.6,0.8,1,1.6,1.5,2.5c0.4,1.3,0.8,2.6,1,3.9
			c0.1,0.6,0.1,1.2,0.1,1.8c-0.2,0.4-0.5,0.8-0.8,1.2c-0.5,0.6-1.1,1.2-1.7,1.8c-1.1,0.8-2.2,1.5-3.4,2.1c-1.1,0.4-2.2,0.7-3.3,0.9
			c-3,0.3-6.2,0.5-9.2,0.3c-1.8-0.3-3.5-0.7-5.2-1.3c-3.1-1.5-6.2-3.2-9-5.1c-1.5-1.2-2.9-2.5-4.2-3.9c-0.8-0.8-1.6-1.7-2.4-2.5
			c-1-1-2-1.9-3.2-2.8c-1.1-0.8-2.9-0.9-4.2-0.6c-1.4,0.4-2.6,1.3-3.3,2.5c-0.7,1.3-0.9,2.8-0.6,4.2c0.3,1.3,1.1,2.1,2,2.9
			c1.7,1.5,3.3,3.4,4.9,5c2.1,2.1,4.5,3.9,7,5.6c1,0.7,2,1.2,3.1,1.8c1.1,0.6,2.3,1.3,3.4,1.9c4.2,2.2,9.2,3.3,14,3.4
			c3.1,0,6.3-0.2,9.4-0.7c5-0.8,9.5-3.3,13.1-6.8c2.1-2,3.9-4.8,4.5-7.6c0.5-2.2,0.1-4.5-0.2-6.7c-0.3-2.1-0.9-4-1.8-6
			c-1-2.4-2.6-4.4-4.3-6.4c-1.1-1.3-2.2-2.5-3.3-3.8c-1.1-1.3-2.1-2.6-3.3-3.8c-2.5-2.6-5.2-5-8-7.3c-2.9-2.4-5.8-4.8-8.8-7
			c-1.4-1-2.9-2.1-4.3-3.1c-1.2-0.8-2.3-1.5-3.5-2.3c-0.5-0.5-1-1-1.5-1.5c-0.4-0.6-0.7-1.2-1-1.8c-0.1-0.3-0.2-0.7-0.3-1
			c0-0.3,0-0.7,0-1c0.3-1.4,0.6-2.7,1.1-4c0.7-1.5,1.6-2.9,2.5-4.3c0.5-0.6,1.1-1.1,1.7-1.6c0.5-0.3,1-0.6,1.5-0.9
			c0.6-0.2,1.1-0.3,1.7-0.4c3.2-0.2,6.3-0.1,9.5,0c4,0.1,7.9,0.4,11.8,0.9c1.4,0.1,3-0.7,3.9-1.6c1-1,1.6-2.4,1.6-3.9
			s-0.6-2.9-1.6-3.9c-0.4-0.3-0.7-0.6-1.1-0.9c-0.9-0.5-1.8-0.7-2.8-0.8c-3.2-0.3-6.3-0.6-9.5-0.8c-2.5-0.1-5.1-0.2-7.6-0.2
			c-0.1,0-0.3,0-0.4,0C386,133.1,385,133.2,383.9,133.2 M404.6,204.1c0,0.1,0,0.1,0,0.2C404.6,204.2,404.6,204.2,404.6,204.1
			 M404.3,205.1c0,0.1-0.1,0.3-0.2,0.4C404.2,205.4,404.3,205.3,404.3,205.1"/>
		<path class="st4" d="M391,132.4c-1,0-2,0-3.1,0.1c-0.8,0-1.7,0.2-2.5,0.3l-0.7,0.1c-1.6,0.2-3,0.9-4.6,1.6
			c-1.3,0.6-2.4,1.5-3.4,2.3c-0.9,0.8-1.7,1.5-2.3,2.3c-1.3,1.6-2.2,2.9-2.9,4.1c-1.6,2.8-2.7,5.4-3.2,7.9c-0.1,0.6-0.2,1.1-0.3,1.7
			c-0.2,1.5-0.4,3.2,0,5.2c0.4,2.2,1.4,4.5,2.9,6.7c1.1,1.6,2.5,3,4.3,4.3c1.2,0.9,2.4,1.7,3.4,2.4c2.1,1.3,4.1,2.8,6.3,4.5l0.1,0.1
			l0.1,0.1c3.9,3.1,7.7,6.2,11.2,9.5c1.7,1.6,3.3,3.3,5,5.4c0.5,0.6,1,1.1,1.4,1.7l0.4,0.5c0.8,1,1.7,2,2.5,3c0.6,0.8,1,1.6,1.5,2.5
			c0.4,1.2,0.7,2.5,1,3.9c0.1,0.6,0.1,1.2,0.1,1.8c-0.2,0.4-0.5,0.8-0.8,1.2c-0.5,0.6-1.1,1.2-1.7,1.8c-1.2,0.9-2.3,1.5-3.4,2.1
			c-1.1,0.4-2.2,0.7-3.3,0.9c-2.3,0.3-4.3,0.4-6.1,0.4c-1.1,0-2.1,0-3.1-0.1c-2-0.3-3.6-0.8-5.2-1.3c-3.1-1.5-6.2-3.2-9-5.1
			c-1.5-1.2-2.9-2.5-4.2-3.9c-0.4-0.4-0.8-0.9-1.2-1.3l-0.3-0.3l-0.9-0.9c-0.9-1-2-1.9-3.2-2.8c-0.7-0.5-1.6-0.8-2.7-0.8
			c-0.5,0-1.1,0.1-1.6,0.2c-1.4,0.4-2.6,1.3-3.3,2.5c-0.7,1.3-1,2.8-0.6,4.3c0.3,1.1,0.9,2,2,2.9c1,0.9,2,1.9,2.9,2.9l0.1,0.1
			c0.6,0.7,1.3,1.4,1.9,2c1.9,1.9,4.2,3.7,7,5.6c0.8,0.5,1.6,1,2.4,1.4l0.7,0.4l0.7,0.4c0.9,0.5,1.8,1,2.7,1.5c4,2.1,9,3.3,14,3.4
			c0.3,0,0.6,0,0.9,0c3,0,5.8-0.2,8.6-0.7c4.8-0.8,9.3-3.2,13.1-6.8c2.3-2.3,4-5,4.5-7.6c0.5-2.1,0.1-4.5-0.2-6.7
			c-0.3-2-0.9-3.9-1.8-6c-1.1-2.5-2.9-4.8-4.3-6.4l-0.9-1.1c-0.8-0.9-1.6-1.8-2.4-2.8l-0.4-0.5c-0.9-1-1.8-2.2-2.8-3.2
			c-2.4-2.4-5-4.8-8-7.3c-2.8-2.3-5.8-4.8-8.8-7l-0.1-0.1l-0.2-0.2c-1.3-0.9-2.6-1.9-4-2.8l-1-0.7c-0.8-0.5-1.7-1.1-2.5-1.7
			c-0.6-0.5-1.1-1-1.5-1.5c-0.4-0.5-0.7-1.1-1-1.8c-0.1-0.3-0.2-0.6-0.3-1c0-0.3,0-0.7,0-1c0.2-1.3,0.6-2.6,1.1-4
			c0.7-1.5,1.6-2.9,2.5-4.3c0.6-0.6,1.2-1.2,1.7-1.6c0.5-0.3,0.9-0.6,1.5-0.9c0.5-0.2,1.1-0.3,1.7-0.4c1.3-0.1,2.7-0.2,4.4-0.2
			c1.6,0,3.2,0,5.1,0.1c3.6,0.1,7.5,0.4,11.8,0.9c0.1,0,0.2,0,0.3,0c1.3,0,2.8-0.8,3.6-1.6c1-1,1.6-2.5,1.6-3.9
			c0-1.5-0.6-2.9-1.6-3.9l-1.1-0.9c-0.9-0.5-1.8-0.8-2.8-0.8c-3.2-0.3-6.4-0.6-9.5-0.8c-2.4-0.1-4.9-0.2-7.2-0.2l-0.5,0
			C391.3,132.4,391.2,132.4,391,132.4"/>
		<path class="st5" d="M396.3,131.9c-1,0-2.1,0-3.1,0.1c-0.9,0-1.7,0.2-2.4,0.3l-0.1,0l-0.7,0.1c-1.6,0.2-3,0.9-4.6,1.6
			c-1.3,0.6-2.4,1.5-3.4,2.3c-0.9,0.8-1.7,1.4-2.3,2.3c-1.3,1.6-2.2,2.9-2.9,4.2c-1.6,2.8-2.7,5.4-3.2,7.9c-0.1,0.6-0.2,1.1-0.3,1.7
			c-0.2,1.5-0.4,3.2,0,5.2c0.4,2.2,1.4,4.5,2.9,6.7c1.1,1.6,2.5,3,4.3,4.3c1.2,0.9,2.5,1.8,3.4,2.3c2.1,1.4,4.2,2.9,6.4,4.5l0.1,0.1
			l0.1,0.1c3.9,3.1,7.6,6.2,11.2,9.5c1.7,1.6,3.3,3.3,5,5.4l1,1.1l0.5,0.6l0.4,0.5c0.8,1,1.7,2,2.5,3c0.6,0.8,1,1.6,1.5,2.5
			c0.4,1.2,0.7,2.5,1,3.9c0.1,0.6,0.1,1.2,0.1,1.8c-0.2,0.4-0.5,0.8-0.8,1.2c-0.5,0.6-1.1,1.2-1.7,1.7c-1.2,0.9-2.3,1.5-3.4,2.1
			c-1.1,0.4-2.2,0.7-3.3,0.9c-2.3,0.3-4.3,0.4-6.1,0.4c-1.1,0-2.1,0-3.1-0.1c-1.9-0.3-3.6-0.8-5.2-1.3c-3.1-1.5-6.2-3.2-9-5.1
			c-1.5-1.2-2.9-2.5-4.2-3.9c-0.4-0.4-0.8-0.8-1.2-1.3l-0.3-0.3l-0.9-0.9c-1-1-2-1.9-3.2-2.8c-0.7-0.5-1.6-0.8-2.7-0.8
			c-0.5,0-1.1,0.1-1.6,0.2c-1.4,0.4-2.6,1.3-3.3,2.5c-0.8,1.3-1,2.8-0.6,4.3c0.3,1.1,0.9,2,2,2.9c1.1,0.9,2.1,2,2.9,2.9l0.1,0.1
			c0.6,0.7,1.3,1.4,1.9,2c1.9,1.9,4.1,3.7,7,5.6c0.8,0.5,1.6,1,2.4,1.4l0.7,0.4l0.7,0.4c0.9,0.5,1.8,1,2.7,1.5c4,2.1,9,3.3,14,3.4
			c0.3,0,0.6,0,0.9,0c2.9,0,5.8-0.2,8.6-0.7c4.8-0.8,9.4-3.2,13.1-6.9c2.3-2.3,4-5,4.5-7.6c0.5-2.2,0.1-4.5-0.2-6.7
			c-0.3-2-0.9-4-1.8-6c-1.1-2.5-2.9-4.8-4.3-6.4l-0.9-1.1c-0.8-0.9-1.6-1.8-2.4-2.8l-0.4-0.5c-1-1.2-1.9-2.2-2.8-3.2
			c-2.4-2.4-5-4.8-8-7.3c-2.9-2.4-5.8-4.8-8.8-7l-0.1-0.1l-0.2-0.2c-1.1-0.8-2.6-1.9-4-2.8l-1-0.7c-0.8-0.5-1.7-1.1-2.5-1.7
			c-0.6-0.5-1.1-1-1.5-1.5c-0.4-0.5-0.7-1.1-1-1.8c-0.1-0.3-0.2-0.6-0.3-1c0-0.3,0-0.6,0-1c0.2-1.3,0.6-2.6,1.1-4
			c0.7-1.5,1.6-2.9,2.5-4.3c0.6-0.6,1.2-1.2,1.7-1.6c0.4-0.3,0.9-0.6,1.5-0.9c0.6-0.2,1.1-0.3,1.7-0.4c1.2-0.1,2.7-0.2,4.4-0.2
			c1.8,0,3.7,0.1,5.1,0.1c3.6,0.1,7.4,0.4,11.8,0.9c0.1,0,0.2,0,0.3,0c1.3,0,2.8-0.8,3.6-1.6c1-1,1.6-2.5,1.6-3.9
			c0-1.5-0.6-2.9-1.6-3.9l-1.1-0.9c-0.9-0.5-1.8-0.8-2.8-0.8c-3.2-0.3-6.4-0.6-9.5-0.8c-2.4-0.1-4.7-0.2-7.2-0.2l-0.5,0
			C396.6,131.9,396.5,131.9,396.3,131.9"/>
		<path class="st6" d="M400.1,132.1c-1,0-2,0.1-2.9,0.1l-0.1,0c-0.9,0-1.7,0.2-2.4,0.3l-0.1,0l-0.7,0.1c-1.6,0.2-3,0.9-4.6,1.6
			c-1.3,0.6-2.4,1.5-3.4,2.3c-0.9,0.8-1.7,1.5-2.3,2.3c-1.3,1.6-2.2,2.9-2.9,4.2c-1.6,2.8-2.7,5.4-3.2,7.9c-0.1,0.6-0.2,1.1-0.3,1.7
			c-0.2,1.5-0.4,3.2,0,5.2c0.4,2.2,1.4,4.5,2.9,6.7c1.1,1.6,2.5,3,4.3,4.3c1.2,0.9,2.5,1.7,3.3,2.3c2.1,1.4,4.2,2.9,6.4,4.6l0.1,0.1
			l0.1,0.1c3.8,3.1,7.6,6.1,11.2,9.5c1.7,1.6,3.3,3.3,5,5.4l1,1.1l0.5,0.6l0.4,0.5c0.8,1,1.7,2,2.5,3c0.5,0.8,1,1.6,1.5,2.4
			c0.4,1.2,0.7,2.5,1,3.9c0.1,0.6,0.1,1.2,0.1,1.8c-0.2,0.4-0.5,0.8-0.8,1.2c-0.6,0.6-1.2,1.2-1.7,1.7c-1.2,0.8-2.3,1.5-3.4,2.1
			c-1.1,0.4-2.2,0.7-3.3,0.9c-2.3,0.3-4.3,0.4-6.1,0.4c-1.1,0-2.2,0-3.1-0.1c-1.9-0.3-3.6-0.8-5.2-1.3c-3.1-1.5-6.2-3.2-9-5.1
			c-1.5-1.3-2.9-2.5-4.2-3.9c-0.4-0.4-0.8-0.8-1.2-1.3l-0.3-0.3l-0.9-0.9c-0.9-1-2-1.9-3.2-2.8c-0.7-0.5-1.7-0.8-2.7-0.8
			c-0.5,0-1.1,0.1-1.6,0.2c-1.4,0.4-2.6,1.3-3.3,2.6c-0.8,1.3-1,2.9-0.6,4.3c0.3,1.1,0.9,2,2,2.9c1.1,0.9,2.1,2,2.9,2.9l0.1,0.1
			c0.6,0.7,1.3,1.4,1.9,2c2,1.9,4.2,3.7,7,5.6c0.8,0.5,1.6,1,2.4,1.4l0.7,0.4l0.7,0.4c0.9,0.5,1.8,1,2.7,1.5c4,2.1,9,3.3,14,3.4
			c0.3,0,0.6,0,0.9,0c2.9,0,5.8-0.2,8.6-0.7c4.8-0.8,9.4-3.2,13.1-6.9c2.3-2.3,4-5,4.5-7.6c0.5-2.2,0.1-4.5-0.2-6.7
			c-0.3-2-0.9-4-1.8-6c-1.1-2.6-2.9-4.8-4.3-6.4L421,186c-0.8-0.9-1.6-1.8-2.4-2.8l-0.4-0.5c-0.9-1.1-1.9-2.2-2.8-3.2
			c-2.4-2.4-5-4.8-8-7.3c-2.9-2.4-5.8-4.8-8.8-7l-0.1-0.1l-0.2-0.2c-1.3-0.9-2.7-1.9-4-2.8l-1-0.7c-0.8-0.5-1.7-1.1-2.5-1.7
			c-0.6-0.5-1.1-1-1.5-1.5c-0.4-0.5-0.7-1.1-1-1.8c-0.1-0.3-0.2-0.7-0.3-1c0-0.3,0-0.6,0-1c0.2-1.3,0.6-2.6,1.1-4
			c0.7-1.5,1.5-2.9,2.5-4.3c0.6-0.7,1.2-1.2,1.7-1.6c0.4-0.3,0.9-0.6,1.5-0.9c0.6-0.2,1.1-0.3,1.7-0.4c1.2-0.1,2.6-0.2,4.4-0.2
			c1.8,0,3.7,0.1,5.1,0.1c3.5,0.1,7.4,0.4,11.8,0.9c0.1,0,0.2,0,0.3,0c1.3,0,2.8-0.8,3.6-1.6c1-1,1.6-2.5,1.6-3.9
			c0-1.5-0.6-2.9-1.6-3.9l-1.1-0.9c-0.9-0.5-1.8-0.8-2.8-0.8c-3.2-0.3-6.4-0.6-9.5-0.8c-2.4-0.1-4.7-0.2-7.2-0.2l-0.5,0
			C400.4,132.1,400.2,132.1,400.1,132.1"/>
	</g>
</g>
<path class="st7" d="M83.1,637.4c-0.4,0-0.7,0.1-1.1,0.1l-0.2,0c-0.5,0.1-1.1,0.2-1.6,0.4c-0.8,0.3-1.7,0.6-2.7,1.1
	c-0.9,0.4-1.6,1.1-2.4,2c-0.4,0.5-0.6,1-0.6,1.5c0,0.6,0.2,1.1,0.6,1.5c0.4,0.4,1,0.6,1.6,0.6c0.6,0,1.1-0.2,1.4-0.6
	c0.3-0.4,0.6-0.6,0.8-0.9c0.4-0.3,0.9-0.6,1.5-0.8c0.6-0.2,1-0.4,1.5-0.5c0,1.4,0,2.7-0.1,4.2c-0.1,1.6-0.2,3.2-0.2,5.1
	c0,1,0.1,2.1,0.8,2.9c0.7,0.8,1.7,1.2,2.8,1.2c0.2,0,0.5,0,0.8-0.1c1.9-0.4,3-2.2,3.7-3.7c0.3-0.7,0.7-1.5,1.1-2.5
	c0.1,0.4,0.3,0.9,0.4,1.2c0.5,1.1,0.9,2.1,1.4,3.2c0.6,1.3,1.5,3.1,3.3,3.1c1.7,0,2.8-1.6,3.4-2.9c0.4-0.9,0.6-1.7,0.9-2.5
	c0.3-1.1,0.6-2.2,0.7-3.4c0.1-0.9,0.2-1.9,0.2-2.8l0-0.1l0-0.2l0-0.1c0-0.7,0.1-1.4,0.2-2.2l0-0.3c0.1-0.7,0.2-1.3,0.4-1.8
	c0.2-0.5,0.1-1-0.1-1.5c-0.3-0.5-0.8-1-1.3-1.1c-0.2-0.1-0.4-0.1-0.6-0.1c-0.4,0-0.7,0.1-1.1,0.3c-0.5,0.3-0.8,0.7-1,1.3
	c-0.4,1.2-0.5,2.4-0.7,3.6l-0.1,0.4c-0.1,0.7-0.1,1.4-0.2,2.1l0,0.4c0,0.6-0.1,1.1-0.2,1.7c-0.2,1.3-0.5,2.5-0.8,3.5l-0.3-0.8
	l-0.2-0.4l-0.2-0.5c-0.3-0.6-0.5-1.2-0.7-1.8c-0.2-0.4-0.3-0.8-0.4-1.2c-0.2-0.6-0.3-1.1-0.3-1.4l0-0.3c0-0.3,0-0.5-0.1-0.8l0-0.1
	c0-0.4-0.1-0.8-0.2-1.1c-0.1-0.2-0.2-0.4-0.3-0.6c-0.3-0.5-0.7-0.7-1.3-1c-0.2-0.1-0.4-0.1-0.6-0.1c-0.3,0-0.7,0.1-1.2,0.3
	c-0.4,0.2-0.8,0.7-1,1c-0.1,0.2-0.3,0.4-0.4,0.6l-0.2,0.3c-0.6,1.2-1.1,2.4-1.5,3.4l-0.5,1.1l-0.1,0.2l-0.1,0.1l0,0.1
	c-0.3,0.7-0.6,1.3-0.9,1.9c0.1-0.4,0.1-0.9,0.2-1.4l0.1-1.1c0-0.3,0-0.7,0.1-1l0-0.3c0.1-1,0.1-1.9,0.1-2.7c0-0.5,0-1.1-0.1-1.8
	c-0.1-1.8-0.5-3.5-2.1-4.1C83.7,637.4,83.4,637.4,83.1,637.4"/>
<g>
	<path class="st7" d="M117.7,641.7c-0.3,0-0.7,0.1-0.9,0.1c-0.5,0.1-0.7,0.2-1,0.3c-1.1,0.5-2,0.9-2.9,1.4c-0.5,0.2-0.8,0.7-1,1.2
		c-0.2,0.6-0.1,1.2,0.2,1.7c0.4,0.6,1.1,1,1.8,1c0.4,0,0.7-0.1,1.1-0.3l0.5-0.3c-0.3,0.7-0.4,1.5-0.6,2.8c-0.1,0.6-0.1,1.2-0.1,1.7
		l0,0.4c0,0.3,0,0.6,0,0.8l0,0.2c0,0.2,0,0.5,0,0.7c0,0.7,0.3,1.3,0.7,2c0.4,0.6,1.1,1.1,1.8,1.1c0.4,0,0.7-0.1,1-0.3
		c0.5-0.3,0.9-0.8,1-1.4c0.1-0.5,0.1-1.1-0.2-1.5c-0.1-0.1-0.1-0.2-0.2-0.3c0-0.6,0-1.2,0-1.7l0-0.3c0-0.6,0-1.2,0.1-1.9
		c0.1-0.6,0.3-1.3,0.5-1.9l0-0.1c0.1-0.4,0.2-0.8,0.3-1.2c0.1-0.6,0.2-1.2,0.2-1.7c0-0.3-0.1-0.6-0.1-0.9c-0.1-0.3-0.4-0.8-0.6-1.1
		c-0.2-0.2-0.4-0.3-0.6-0.4c-0.2-0.1-0.4-0.2-0.6-0.3C118.1,641.7,117.9,641.7,117.7,641.7"/>
	<path class="st7" d="M116.5,634.9c-1.2,0-2.1,1-2.1,2.1c0,1.1,1,2.1,2.1,2.1c1.1,0,2.1-1,2.1-2.1
		C118.6,635.9,117.7,634.9,116.5,634.9"/>
</g>
<path class="st7" d="M142.8,629.5c-1.2,0-2.1,0.9-2.1,2.1c-0.1,3-0.1,6-0.1,9l-0.3-0.1c-0.6,0-1.1,0.2-1.5,0.6
	c-0.4,0.4-0.6,0.9-0.6,1.5c0,1.1,1,2.1,2.1,2.1h0.4c0,1.7,0,3.3,0.2,4.7c0.1,0.5,0.2,1.2,0.3,1.8c0.1,0.5,0.4,1.1,0.5,1.4l0.1,0.1
	c0.1,0.3,0.2,0.6,0.4,0.8c0.2,0.5,0.6,1,0.9,1.4c0.2,0.3,0.5,0.5,0.8,0.6l0.2,0.1c0.3,0.2,0.5,0.3,0.8,0.4l0.3,0.1
	c0.2,0.1,0.5,0.1,0.7,0.2c0.3,0.1,0.5,0.1,0.6,0.1c1,0,1.8-0.6,2.1-1.5c0.2-0.5,0.1-1.2-0.2-1.7c-0.3-0.5-0.7-0.8-1.2-0.9
	c-0.3-0.1-0.6-0.1-0.8-0.2l-0.1-0.1c-0.1-0.2-0.2-0.4-0.3-0.7c-0.3-0.7-0.5-1.4-0.6-2.1c-0.2-1.4-0.2-2.8-0.2-4.5l0.9,0.1l0.7,0
	l0.7,0c1.1,0,2.1-1,2.1-2.1c0-1.2-0.9-2.1-2.1-2.1c-0.8,0-1.5-0.1-2.3-0.1l0-0.7v-0.2c0-2.7,0-5.4,0.1-8.2c0-0.5-0.2-1-0.6-1.4
	C144,629.7,143.4,629.5,142.8,629.5"/>
<path class="st7" d="M166.8,630.2c-1.2,0-2.1,1-2.1,2.1V644v5.4c0,0.8,0,1.6,0,2.4c0,0.4,0,0.7,0,1.1c0.1,0.9,0.2,1.7,0.8,2.3
	c0.4,0.4,0.9,0.6,1.5,0.6c0.6,0,1.1-0.2,1.5-0.6c0.6-0.6,0.8-1.5,0.9-2.1l0.1-0.3l0.1-0.4l0.1-0.2c0.1-0.2,0.1-0.4,0.1-0.6
	c0.3-0.9,0.5-1.6,0.8-2.3c0.4-1,0.8-1.8,1.4-2.5l0.2-0.2c0.1,0,0.1-0.1,0.2-0.1c0.1,0,0.1,0,0.2-0.1l0,0.1c0.4,1.2,0.7,2.1,0.9,3.1
	c0.1,1.2,0.2,2.6,0.2,3.4l0,0.2l0,0.2l0,0.9c0,1.2,1,2.1,2.1,2.1c0.6,0,1.1-0.2,1.5-0.7c0.4-0.4,0.6-0.9,0.6-1.4l0-0.9l0-0.1l0-0.1
	c0-1.1-0.1-2.6-0.2-3.9c-0.2-1.3-0.6-2.6-0.9-3.5c-0.2-0.5-0.4-1-0.6-1.5c-0.4-1.1-1.4-1.8-2.6-2.1c-0.3-0.1-0.6-0.1-0.8-0.1
	c-0.6,0-1.2,0.1-1.8,0.4c-0.6,0.3-1.1,0.5-1.5,0.9c-0.2,0.1-0.3,0.3-0.5,0.6l0.1-0.5v-11.3C168.9,631.1,167.9,630.2,166.8,630.2"/>
<path class="st7" d="M259,631.8c-0.6,0-1.1,0.2-1.5,0.6c-0.3,0.4-0.7,1-0.6,1.5c0.4,3.1,0.4,6.2,0.4,9.2l0,1.5c0,0.8,0,1.7,0,2.5
	c0,0.3,0,0.7,0.1,1l0,0.2c0,0.4,0,0.7,0.1,1.1c0,0.4,0,0.7,0,1.1l0,0.3l0,0.3l0,0.2c0,1.1,0.1,2.1,0.2,3.1c0.1,0.5,0.2,1,0.6,1.5
	c0.4,0.4,0.9,0.6,1.5,0.6c0.6,0,1.1-0.2,1.5-0.6c0.3-0.4,0.7-1,0.6-1.5c-0.1-1.2-0.2-2.4-0.2-3.4c0-0.5,0-1,0-1.4
	c0-0.4,0-0.7-0.1-1.1l0-0.2c0-0.4-0.1-0.7-0.1-1c0-0.8,0-1.6,0-2.6v-1.4c0-3.1,0-6.2-0.4-9.3c0-0.2-0.1-0.4-0.1-0.5
	c-0.1-0.4-0.3-0.7-0.6-0.9C260.1,632.1,259.6,631.8,259,631.8"/>
<path class="st7" d="M288,638.9L288,638.9c-0.5,0-0.9,0.1-1.2,0.1c-0.3,0.1-0.6,0.2-0.8,0.3l-0.2,0.1c-0.7,0.3-1.2,0.9-1.7,1.4
	c-0.6,0.6-1.1,1.3-1.5,2c-0.3,0.6-0.6,1.2-0.8,1.7c-0.8,1.9-1.2,4.1-1.3,6.4c0,0.2,0,0.4,0,0.6c0,0.5,0.2,0.9,0.4,1.4
	c0.2,0.5,0.5,0.9,1,1.4c0.8,0.7,1.6,1.3,2.4,1.6c0.8,0.3,1.7,0.5,2.6,0.5c1,0,1.9-0.2,2.8-0.5c0.5-0.2,0.9-0.4,1.3-0.6
	c0.7-0.5,1.2-1.1,1.6-1.7c0.3-0.5,0.5-1,0.7-1.7c0.2-0.5,0.2-1.1,0.3-1.7l0-0.2c0.1-0.9,0.1-1.9,0.1-3l0-0.4c0-0.4,0-0.9,0-1.3
	c0-0.2,0-0.5,0-0.7c0-0.8-0.2-1.4-0.5-2c-0.2-0.4-0.6-0.8-1.1-0.9c-0.1-0.2-0.2-0.4-0.4-0.7l-0.2-0.2c-0.3-0.4-0.7-0.8-1.1-1.1
	C289.6,639.2,288.8,638.9,288,638.9 M286.9,652.3c-0.2,0-0.3,0-0.5,0c-0.2,0-0.4-0.1-0.6-0.2c-0.2-0.1-0.4-0.3-0.6-0.4l-0.1-0.1
	l-0.1-0.1l-0.1-0.1l-0.2-0.2c0-0.7,0.1-1.4,0.1-1.9c0.2-1.1,0.5-2.2,0.9-3.3c0.1-0.3,0.3-0.5,0.4-0.8c0.2-0.4,0.4-0.6,0.5-0.9
	c0.3-0.4,0.7-0.8,1.1-1.1l0.1-0.1l0.3,0.4l0.2,0.2l0.1,0.1l0.2,0.2c0.2,0.2,0.5,0.4,0.8,0.5c0.1,0.8,0.1,1.5,0,2.2l0,0.5
	c0,1.1-0.1,2-0.1,2.8c-0.1,0.4-0.2,0.8-0.3,1.1c0,0.1-0.1,0.2-0.2,0.3l-0.2,0.2c-0.1,0.1-0.2,0.1-0.4,0.2c-0.3,0.1-0.6,0.2-0.9,0.2
	C287.2,652.3,287.1,652.3,286.9,652.3"/>
<path class="st7" d="M310.9,640.9c-0.2,0-0.5,0-0.8,0.1c-0.3,0.1-0.6,0.2-1,0.4c-0.4,0.3-0.8,0.6-1.1,1l-0.1,0.1l-0.5,0.5l-0.1,0.1
	l-0.1,0.1l-0.1,0.1c-0.2,0.3-0.5,0.5-0.7,0.7c-0.4,0.4-0.6,0.9-0.6,1.5c0,0.6,0.2,1.1,0.6,1.5c0.4,0.4,0.9,0.6,1.5,0.6
	s1.1-0.2,1.5-0.6c0.1-0.1,0.2-0.2,0.3-0.3l0.1-0.1l-0.1,0.1c0.1,0.9,0.3,1.8,0.4,2.9c0.2,0.9,0.3,1.7,0.6,2.5
	c0.2,0.6,0.4,1.1,0.7,1.7c0.1,0.2,0.2,0.4,0.3,0.6c0.4,0.8,1.2,1.2,1.7,1.5c0.2,0.1,0.5,0.2,0.8,0.3c0.3,0.1,0.6,0.1,0.9,0.2l0.2,0
	c0.3,0,0.6,0,0.8-0.1c0.3,0,0.5-0.2,0.9-0.3l0.1,0c0.2-0.1,0.4-0.3,0.6-0.4c0.2-0.2,0.3-0.3,0.5-0.5c0.3-0.4,0.6-0.8,0.9-1.3
	c0.4-0.6,0.7-1.3,1-2l0.2-0.5c0.6-1.5,1.2-2.9,1.9-4.4l0.1-0.3c0.2-0.4,0.3-0.7,0.5-1.1l0.1-0.1c0.2-0.3,0.4-0.7,0.6-1
	c0.3-0.5,0.3-1.2,0.2-1.6c-0.1-0.5-0.5-1-1-1.3c-0.3-0.2-0.7-0.3-1.1-0.3c-0.2,0-0.4,0-0.6,0.1c-0.5,0.1-0.9,0.5-1.3,1
	c-0.2,0.2-0.3,0.5-0.4,0.7l-0.1,0.3c-0.2,0.4-0.4,0.8-0.6,1.2c-0.3,0.6-0.5,1.3-0.7,1.7c-0.1,0.3-0.3,0.7-0.4,1l-0.3,0.7
	c-0.3,0.6-0.5,1.2-0.8,1.7c-0.4,0.8-0.7,1.7-1.2,2.4c0-0.1,0-0.2-0.1-0.3l-0.1-0.1c-0.6-1.6-0.9-3.3-1.2-5l0-0.2
	c-0.1-0.6-0.1-1.2-0.2-1.8c0-0.4-0.1-0.9-0.2-1.4c-0.2-1-0.9-2.2-2-2.4C311.3,640.9,311.1,640.9,310.9,640.9"/>
<path class="st7" d="M341.2,636c-0.1,0-0.2,0-0.4,0c-1.4,0.1-2.5,0.7-3.4,1.8c-1.3,1.5-2.2,3.2-2.8,5.1c-0.3,0.8-0.4,1.7-0.5,2.9
	c-0.1,1.2-0.2,2.4,0.2,3.7c0.3,1.1,0.8,2,1.4,2.8c0.4,0.5,0.8,1,1.4,1.6c1.2,1.3,2.6,2.1,4.1,2.4c0.3,0.1,0.5,0.1,0.8,0.1
	c0.3,0,0.6,0.1,0.8,0.1c0.2,0,0.4,0,0.5,0c0.5-0.1,0.9-0.1,1.3-0.2c0.5-0.1,1-0.3,1.4-0.6l0.3-0.2c0.7-0.3,1.6-0.8,2.3-1.6
	c0.8-0.9,0.8-2.2,0-3c-0.4-0.4-0.9-0.6-1.5-0.6c-0.6,0-1.1,0.2-1.5,0.6c-0.1,0.1-0.2,0.2-0.3,0.3c-0.5,0.3-1,0.6-1.5,0.8
	c-0.3,0.1-0.6,0.2-0.8,0.2c-0.1,0-0.2,0-0.3,0l-0.1,0c-0.4-0.1-0.7-0.1-1.1-0.3c-0.2-0.1-0.5-0.3-0.7-0.4c-0.6-0.5-1.2-1.1-1.7-1.8
	c-0.2-0.3-0.4-0.6-0.6-1c-0.1-0.3-0.2-0.7-0.3-1c0-0.3,0-0.6,0-0.9l0.1,0l0.3-0.1l0.3-0.1l0.2,0l0.3-0.1c1-0.1,1.9-0.2,2.6-0.2
	c0.4,0,0.7,0,1.1,0c0.3,0,0.7,0,1,0l0.8,0l0.8,0l0.3,0l0.3,0l0.4,0c0.3,0,0.6,0,1,0c0.9,0,2.1-0.3,2.7-1.4c0.2-0.4,0.3-0.7,0.3-1.1
	c0-0.1,0-0.3,0-0.4l0-0.3c0-0.3-0.2-0.6-0.4-0.8l-0.1-0.1l-0.1-0.2c-0.5-0.7-1-1.6-1.7-2.4c-0.8-0.9-1.8-1.7-2.7-2.4
	c-0.3-0.2-0.7-0.5-1.1-0.6c-0.6-0.3-1.2-0.5-1.8-0.6l-0.2,0C342,636.1,341.6,636,341.2,636 M339.3,642.5c0.2-0.3,0.4-0.7,0.6-1
	c0.1-0.2,0.3-0.4,0.4-0.6l0.1-0.1c0.1-0.2,0.3-0.3,0.4-0.4l0.2-0.1c0.1,0,0.1,0,0.2-0.1c0.3,0,0.5,0,0.7,0c0.3,0.1,0.6,0.1,1,0.2
	c0.3,0.2,0.6,0.4,0.9,0.6c0.5,0.4,1,0.8,1.4,1.3c-0.3-0.1-0.7-0.1-1-0.1l-0.2,0l-0.7,0C341.8,642.3,340.5,642.4,339.3,642.5"/>
<path class="st7" d="M472.2,639.2c-0.4,0-0.7,0.1-1,0.3c-0.1,0.1-0.3,0.2-0.4,0.2c-0.2,0.1-0.4,0.2-0.5,0.3l-0.3,0.2
	c-0.4,0.3-0.9,0.6-1.3,0.9c-0.8,0.7-1.4,1.5-1.9,2.4c0-0.5,0-1.1-0.1-1.9c-0.1-0.5-0.2-1-0.6-1.5c-0.4-0.4-0.9-0.6-1.5-0.6
	s-1.1,0.2-1.5,0.6c-0.3,0.3-0.7,0.9-0.6,1.5c0.3,3,0.3,6.1,0.2,9.1l0,0.9c0,0.5,0,1,0,1.6c0,0.7,0,1.5,0.4,2.2
	c0.4,0.7,1.2,1.1,2,1.1c0.7,0,1.3-0.3,1.7-0.8c0.6-0.6,0.8-1.5,1.1-2.2l0.1-0.3l0.1-0.2c0.2-0.4,0.3-0.9,0.4-1.4
	c0.2-0.6,0.3-1.2,0.4-1.7c0.1-0.3,0.1-0.7,0.2-1c0.2-0.7,0.4-1.4,0.7-2.2c0.2-0.4,0.4-0.8,0.7-1.1l0.2-0.3l0.1-0.2l0.2-0.3
	c0.2-0.2,0.5-0.5,0.7-0.7l0.4-0.2l0.4-0.2c0.1-0.1,0.2-0.1,0.3-0.2l0.1-0.1c0.1-0.1,0.3-0.1,0.4-0.2c0.5-0.3,0.8-0.7,1-1.2
	c0.2-0.5,0.1-1.1-0.2-1.6C473.7,639.6,472.9,639.2,472.2,639.2"/>
<path class="st7" d="M497,638.9L497,638.9c-0.4,0-0.8,0.1-1.2,0.1c-0.3,0.1-0.6,0.2-0.8,0.3l-0.2,0.1c-0.7,0.4-1.3,0.9-1.7,1.4
	c-0.6,0.6-1.1,1.3-1.5,2c-0.3,0.7-0.6,1.2-0.8,1.7c-0.8,1.9-1.2,4.1-1.3,6.4c0,0.2,0,0.4,0,0.6c0,0.5,0.2,0.9,0.4,1.4
	c0.2,0.5,0.5,0.9,1,1.4c0.8,0.7,1.6,1.3,2.4,1.6c0.8,0.3,1.7,0.5,2.6,0.5c1,0,1.9-0.2,2.8-0.5c0.5-0.2,0.9-0.4,1.3-0.6
	c0.7-0.5,1.2-1.1,1.6-1.7c0.3-0.5,0.5-1.2,0.7-1.7c0.2-0.5,0.2-1.1,0.3-1.7l0-0.2c0.1-1,0.1-2,0.1-3l0-0.4c0-0.4,0-0.9,0-1.3
	c0-0.2,0-0.5,0-0.7c0-0.8-0.2-1.4-0.5-2c-0.2-0.4-0.6-0.7-1.1-0.9c-0.1-0.2-0.2-0.4-0.4-0.7l-0.2-0.2c-0.4-0.4-0.7-0.8-1.1-1.1
	C498.6,639.3,497.7,638.9,497,638.9 M495.9,652.3c-0.2,0-0.3,0-0.5,0c-0.2,0-0.4-0.1-0.6-0.2c-0.2-0.1-0.4-0.3-0.6-0.4l-0.1-0.1
	c-0.1-0.1-0.3-0.3-0.4-0.4c0-0.6,0.1-1.3,0.1-1.9c0.2-1.1,0.5-2.2,0.9-3.3c0.3-0.6,0.6-1.2,0.9-1.7c0.3-0.3,0.6-0.8,1.1-1.1l0.1-0.1
	c0.1,0.2,0.3,0.4,0.5,0.6l0.1,0.2l0.2,0.2c0.2,0.2,0.5,0.4,0.8,0.5c0.1,0.8,0.1,1.6,0.1,2.3l0,0.5c0,1.1-0.1,2-0.1,2.8
	c-0.1,0.4-0.2,0.8-0.3,1.1c0,0.1-0.1,0.2-0.2,0.3l-0.2,0.2c-0.1,0.1-0.2,0.1-0.4,0.2c-0.3,0.1-0.6,0.2-0.9,0.2
	C496.2,652.3,496,652.3,495.9,652.3"/>
<path class="st7" d="M528.6,635.4c-1.6,0-2.7,1.4-3.6,2.8l-0.2,0.3c0-0.2-0.1-0.3-0.2-0.5c-0.1-0.2-0.3-0.4-0.5-0.6
	c-0.2-0.2-0.4-0.4-0.7-0.6c-0.2-0.1-0.5-0.2-0.7-0.3c-0.2-0.1-0.4-0.1-0.6-0.1c-0.2,0-0.4,0-0.7,0.1c-0.4,0.1-0.7,0.2-1,0.4
	c-0.4,0.3-0.6,0.5-1,1c-0.4,0.5-0.7,1.1-1,1.7l-0.2,0.3c-0.1,0.2-0.3,0.5-0.4,0.8c0-0.3,0-0.7,0-1.1c0-0.6-0.2-1.1-0.6-1.5
	c-0.4-0.4-0.9-0.6-1.5-0.6c-0.6,0-1.2,0.3-1.6,0.7c-0.4,0.4-0.6,0.9-0.5,1.4c0.2,2.8,0.3,5.6,0.3,7.4c0,0.4,0,0.8,0,1.3v0.3
	c0,0.6,0,1.2,0,1.8c0,0.6,0,1.1,0.1,1.7c0,0.4,0.1,0.8,0.1,1.1c0.1,0.6,0.5,1.4,1.1,1.7c0.3,0.2,0.7,0.3,1.1,0.3
	c0.5,0,1.1-0.2,1.5-0.6c0.6-0.6,0.7-1.4,0.9-2.2l0-0.2l0.2-1l0.2-1l0.1-0.4c0.2-1.1,0.4-2.2,0.7-3.2l0.4-1l0.3-0.8
	c0.3-0.7,0.6-1.4,0.9-2c0,1.2,0,2.2,0,3.4l0,1l0,1v0.3c0,0.8,0,1.6,0.4,2.3c0.4,0.6,1.1,1,1.8,1c0.4,0,0.7-0.1,1-0.3
	c0.9-0.5,1.1-1.5,1.4-2.4l0.1-0.5c0.2-0.6,0.3-1.2,0.4-1.8l0.1-0.5l0.1-0.7l0-0.2l0.1-0.4l0-0.3l0.1-0.5c0.1-0.7,0.3-1.6,0.5-2.4
	c0.2-0.4,0.4-0.8,0.7-1.2l0.1,0.3l0.1,0.3c0.2,0.7,0.4,1.3,0.5,1.9c0.1,1.5,0.1,3,0.1,4.4l0,0.1l0,1v0.7v0.2c0,0.6,0,1.2,0,1.8
	l0.1,1.6l0.1,1.6c0.1,1.2,1,2.1,2.1,2.1c0.6,0,1.1-0.2,1.5-0.7c0.4-0.4,0.6-0.9,0.6-1.4l-0.1-3.3c0-0.6,0-1.3,0-1.9V649l0-0.8
	c0-1,0-2.1,0-3.1c0-1.3-0.1-2.4-0.3-3.5c-0.2-0.9-0.6-1.9-1.1-3.1c-0.7-1.4-1.7-3-3.5-3.1C528.6,635.4,528.6,635.4,528.6,635.4"/>
<path class="st7" d="M447.4,619.2c-0.5,0-1.1,0.1-1.7,0.2c-0.4,0.1-0.9,0.3-1.3,0.6c-0.2,0.2-0.5,0.3-0.7,0.5
	c-0.2,0.2-0.4,0.4-0.5,0.6l-0.2,0.3c-0.3,0.3-0.5,0.8-0.6,1.1l-0.1,0.2c-0.4,0.8-0.6,1.6-0.9,2.4l0,0.1l-0.1,0.2
	c-0.3,0.8-0.4,1.6-0.6,2.2l-0.1,0.2l-0.1,0.2l-0.1,0.3c-0.1,0.5-0.3,1.1-0.4,1.6c-0.3,1.5-0.5,3.2-0.7,4.9c-0.5,0.2-1.2,0.3-1.7,0.5
	c-1.1,0.3-1.8,0.5-2.6,0.6c-0.5,0.1-0.9,0.5-1.2,0.9c-0.3,0.5-0.4,1.1-0.3,1.7c0.3,0.9,1.1,1.5,2.1,1.5c0.2,0,0.3,0,0.5-0.1
	c1-0.2,2-0.5,2.8-0.7l-0.1,0.6c-0.2,1.2-0.3,2.2-0.4,3.3l-0.1,1c-0.5,0.4-1.1,0.8-1.6,1.3l-0.3,0.2l-0.3,0.2
	c-0.3,0.2-0.6,0.5-0.9,0.7l-0.3,0.2c-1.3,0.9-2.5,1.8-3.6,2.9c-0.3,0.3-0.7,0.7-1,1.1c-0.3,0.4-0.5,0.8-0.7,1.4
	c-0.2,0.4-0.3,0.7-0.3,1.1c-0.1,0.6-0.2,1.2-0.2,1.7c0,1.1,0,2.2,0.1,3.3c0.1,0.9,0.1,1.7,0.4,2.4c0.2,0.6,0.7,1.4,1.5,2
	c0.5,0.3,1.1,0.5,1.7,0.5c0.3,0,0.6,0,0.9-0.1c1.6-0.4,2.6-1.6,3.5-2.8c0.7-1,1.2-1.8,1.7-2.6c0.6-1.1,1.1-2.2,1.5-3.4
	c0.7-1.9,1.2-3.9,1.6-5.9c0.1-0.6,0.2-1.1,0.3-1.7c0.4-0.3,0.8-0.6,1.3-1l0.4-0.3c0.4-0.3,0.7-0.5,1.1-0.7l-0.2,0
	c0.5-0.1,0.9-0.4,1.1-0.8c0.3-0.5,0.4-1.1,0.2-1.6c-0.1-0.5-0.5-1-1-1.3c-0.3-0.2-0.7-0.3-1.1-0.3c-0.2,0-0.4,0-0.5,0.1
	c-0.2,0.1-0.5,0.2-0.7,0.3c0.2-0.9,0.3-2,0.5-3.3c2-1,3.6-2.1,5-3.5c0.6-0.6,1-1.3,1.4-1.8c0.4-0.6,0.7-1.3,1-1.9
	c0.4-0.9,0.6-1.9,0.8-2.7c0.3-1.1,0.5-2.4,0.5-3.5c0-0.5,0.1-1.1,0.1-1.6c0-0.8-0.1-1.4-0.4-1.9c-0.4-0.7-1-1.2-2-1.6
	c-0.7-0.2-1.4-0.3-2.1-0.3C447.6,619.2,447.5,619.2,447.4,619.2 M446.8,623.5L446.8,623.5c0.1,0,0.3-0.1,0.4-0.1l0.1,0
	c0.1,0,0.1,0,0.2,0c0.2,0,0.4,0,0.6,0l-0.1,0.4l-0.1,0.7l0,0.2l0,0.1l0,0.3c-0.2,1.7-0.6,3-1,4.2c-0.2,0.5-0.6,1.1-1,1.7
	c-0.6,0.7-1.2,1.2-1.7,1.6l-0.2,0.1c0.6-3.3,1.3-5.8,2.1-7.9c0.2-0.4,0.4-0.8,0.6-1.1l0.1-0.1L446.8,623.5
	C446.8,623.5,446.8,623.5,446.8,623.5C446.8,623.5,446.8,623.5,446.8,623.5 M433.6,658.4c0-0.4,0-0.8,0-1.2l0-0.2l0-0.5l0-0.2
	c0-0.6,0-1.2,0-1.8c0-0.2,0.1-0.5,0.2-0.8c0.1-0.1,0.1-0.3,0.2-0.4c0.2-0.2,0.3-0.4,0.5-0.5c0.6-0.5,1.1-1,1.6-1.3l0.6-0.4l0.4-0.3
	l0.3-0.2c-0.5,1.6-0.9,2.7-1.3,3.7C435.3,655.8,434.5,657.2,433.6,658.4"/>
<path class="st1" d="M128.7,692.1c-0.5,0-1.1,0-1.7,0.1c-0.8,0.1-1.5,0.3-2.1,0.5c-0.5,0.2-0.9,0.4-1.4,0.6l-0.2,0.1
	c-0.8,0.3-1.6,0.8-2.3,1.4l-0.3,0.2c-0.3,0.3-0.6,0.5-0.9,0.7c-0.9,0.8-1.6,1.6-2.2,2.4l-0.1,0.1l-0.1,0.1c-0.7,0.9-1.4,1.8-2,2.7
	c-0.5,0.9-1,2-1.5,3.2c-0.4,1-0.7,2-0.9,3.2c-0.2,0.7-0.3,1.4-0.3,2l-0.1,0.6l0,0.2c0,0.3-0.1,0.6-0.1,0.9l0,0.3
	c-0.1,0.9-0.1,1.9-0.2,2.8l0,0.6l0,0.2c-0.1,1.6-0.1,3.7-0.1,5.7c0.1,2,0.2,3.9,0.9,5.6c0.2,0.4,0.4,1,0.8,1.5
	c0.3,0.4,0.6,0.7,1,1.1c0.4,0.4,0.8,0.7,1.3,1.1l0.2,0.2c0.8,0.6,1.6,1.1,2.4,1.6c0.8,0.5,1.8,1,3,1.5c2,0.8,4.3,1,6.4,1.1l0.2,0
	l0.2,0c0.2,0,0.4,0,0.5,0c0.2,0,0.4,0,0.6,0c0.5-0.1,1-0.1,1.5-0.2c0.6-0.1,1.1-0.3,1.5-0.5c0.5-0.2,1.1-0.5,1.6-0.8
	c0.7-0.5,1.3-1,1.7-1.5c0.7-0.9,1.3-2,1.9-3c0.5-0.9,0.8-1.8,1.1-2.8c0.2-0.5,0.3-0.9,0.4-1.4c0.1-0.6,0.2-1.2,0.3-1.8l0-0.3
	c0.1-0.8,0.1-1.7,0.2-2.5l0-0.2l0-0.3l0-0.2v-0.1c0-0.5,0-1.1,0-1.6c0-1-0.3-1.8-0.8-2.5c-0.3-0.5-0.7-0.8-1.1-1.1
	c-0.3-0.2-0.8-0.4-1.1-0.5c-0.4-0.1-0.7-0.2-1.1-0.2l-0.3,0c-0.3,0-0.6-0.1-0.9-0.1c-0.5,0-0.8,0-1.2,0c-0.3,0-0.5,0-0.8,0
	c-1,0.1-2,0.2-2.9,0.4l-0.1,0l0,0c-0.4,0.1-0.8,0.1-1.2,0.2c-0.6,0.1-1.2,0.2-1.9,0.3l-0.3,0.1l-0.2,0c-0.2,0-0.3,0.1-0.5,0.1
	c-0.5,0.1-1,0.3-1.4,0.5c-0.5,0.2-0.8,0.8-1,1.3c-0.2,0.5-0.1,1.1,0.2,1.6c0.3,0.5,0.7,0.8,1.3,1c0.2,0,0.3,0.1,0.5,0.1
	c0.3,0,0.5-0.1,0.9-0.2c0.7-0.2,1.6-0.3,2.4-0.5l0.3,0l0.5-0.1l0.9-0.2c0.7-0.1,1.3-0.2,2-0.3c0.5-0.1,1-0.1,1.5-0.1
	c0.6,0,1.2,0,1.8,0.1l0.3,0c0,0.8,0,1.7,0,2.4l0,0.3c0,1-0.1,1.8-0.2,2.4c-0.2,1.2-0.6,2.4-1.1,3.9c-0.1,0.3-0.3,0.5-0.4,0.8
	L134,727l-0.1,0.2c-0.3,0.5-0.5,0.9-0.8,1.4c-0.2,0.2-0.4,0.4-0.6,0.5c-0.3,0.2-0.7,0.4-1.1,0.6c-0.5,0.2-1,0.3-1.5,0.4
	c-0.4,0-0.8,0-1.2,0c-1.1,0-2.2-0.1-2.9-0.2c-1.2-0.2-2.2-0.5-3.2-0.9c-1.3-0.6-2.7-1.5-4.2-2.6c-0.4-0.3-0.8-0.7-1.1-1.1
	c-0.1-0.2-0.2-0.3-0.3-0.5c-0.2-0.6-0.4-1.3-0.5-2c-0.1-1.1-0.1-2.2-0.1-3.3v-0.1l0-0.4c0-1.1,0-2.1,0-3.2c0-1.9,0.2-3.9,0.4-5.9
	c0.1-0.8,0.3-1.6,0.5-2.4c0.2-0.7,0.4-1.4,0.7-2l0.1-0.3c0.2-0.6,0.5-1.2,0.8-1.8c0.3-0.6,0.8-1.2,1.3-1.9c0.6-0.7,1.2-1.4,1.8-2.1
	c0.5-0.5,1-1,1.7-1.5c0.7-0.5,1.4-0.8,2-1.1c0.6-0.2,1.2-0.4,1.7-0.5c0.4,0,0.9-0.1,1.3-0.1c0.9,0,1.8,0.1,3,0.2
	c0.4,0.1,0.7,0.1,1.1,0.2c0.6,0.3,1.1,0.7,1.6,1.1c0.2,0.1,0.3,0.3,0.5,0.4c0.2,0.2,0.3,0.5,0.4,0.7c0.4,0.6,1.1,1,1.8,1
	c0.4,0,0.7-0.1,1-0.3c0.5-0.3,0.8-0.7,1-1.3c0.1-0.6,0.1-1.1-0.2-1.6c-0.3-0.5-0.7-1.2-1.2-1.7c-0.2-0.2-0.4-0.4-0.6-0.5l-0.3-0.2
	c-0.2-0.2-0.5-0.3-0.7-0.5c-0.8-0.5-1.6-1.1-2.7-1.3c-0.7-0.2-1.4-0.2-2-0.3l-0.1,0l-0.3,0c-0.6-0.1-1.1-0.1-1.7-0.1
	C129.1,692.1,128.9,692.1,128.7,692.1"/>
<path class="st1" d="M186.8,710.5c-0.4,0-0.8,0-1.2,0.1c-1.4,0.1-2.7,0.5-4,1.2c-0.4,0.2-0.7,0.4-1,0.6l-0.1,0.1l-0.2,0.2
	c-0.3,0.2-0.6,0.4-0.8,0.6c-1.2,1-2.2,2.1-2.9,3.4c-0.6,1-1.1,2.1-1.5,3.2c-0.4,1-0.8,2-1.1,3.1c-0.3,1.2-0.5,2.4-0.6,3.4
	c-0.1,1.5,0.2,3,1.1,4.7c0.5,1.1,1.4,1.9,2.5,2.4c0.7,0.3,1.4,0.5,2.4,0.7c0.4,0.1,1,0.1,1.5,0.1c0.1,0,0.3,0,0.4,0
	c0.5,0,1-0.1,1.4-0.2c0.5-0.1,0.9-0.3,1.3-0.5l0.3-0.1c0.5-0.2,1-0.4,1.4-0.6c0.5-0.3,1-0.7,1.4-1l0.3-0.3c0.6-0.5,1-0.9,1.4-1.3
	c0.2-0.3,0.5-0.6,0.7-0.8l0.2-0.2c0.7-0.9,1.3-1.9,1.8-3l0,0.1l0.1,0.2c0.4,1.4,1.2,2.8,2.4,4c0.4,0.4,0.9,0.6,1.5,0.6
	c0.6,0,1.1-0.2,1.5-0.6c0.8-0.8,0.8-2.1,0-3c-0.2-0.2-0.4-0.4-0.5-0.6c-0.3-0.4-0.5-0.8-0.7-1.1c-0.2-0.6-0.4-1.2-0.5-2
	c-0.2-1.6-0.3-3.3-0.3-5.1l0-1.1c0-0.6,0-1.2,0-1.8l0-0.5c0-0.3,0-0.6,0-1l0-0.4c0-0.8,0-1.6-0.5-2.3c-0.4-0.7-1.1-1-1.8-1
	c-0.2,0-0.3,0-0.5,0c-0.3,0.1-0.6,0.2-0.8,0.4l-0.9-0.2c-0.7-0.2-1.4-0.3-2.2-0.4C187.6,710.6,187.2,710.5,186.8,710.5 M180.8,730.2
	c-0.2,0-0.5,0-0.7,0c-0.4-0.1-0.9-0.2-1.3-0.3c-0.1-0.1-0.2-0.1-0.4-0.2c-0.2-0.3-0.4-0.6-0.6-1.1c-0.1-0.4-0.2-0.8-0.3-1.2
	c0-0.5,0-1,0.1-1.3c0.2-1.2,0.4-2.1,0.7-2.9c0.3-0.9,0.7-1.8,0.9-2.5c0.4-1,0.9-2,1.5-2.9c0.5-0.5,1-1,1.7-1.6
	c0.4-0.3,0.9-0.7,1.4-1c0.7-0.2,1.3-0.4,1.8-0.5c0.4,0,0.7-0.1,1.1-0.1c0.4,0,0.7,0,1.1,0.1c0.6,0.1,1.3,0.2,2.1,0.5l-0.1,0.5
	c-0.2,1.1-0.4,2.2-0.7,3.6l0,0.2c-0.3,1.2-0.6,2.6-1,3.9c-0.2,0.4-0.4,0.8-0.6,1.2l-0.1,0.1l-0.1,0.1c-0.3,0.5-0.6,1.1-0.9,1.6
	l-0.1,0.1c-0.3,0.3-0.6,0.6-0.8,1c-0.3,0.4-0.7,0.6-1.2,1c-0.5,0.4-0.9,0.7-1.4,0.9c-0.2,0.1-0.4,0.2-0.7,0.3
	c-0.5,0.2-0.9,0.3-1.3,0.4C181,730.2,180.9,730.2,180.8,730.2"/>
<path class="st1" d="M233.4,688.6c-0.6,0-1.1,0.2-1.5,0.7c-0.4,0.4-0.6,0.9-0.6,1.4c0.2,4.3,0.4,8.3,0.7,14.1c0.1,1,0.1,2.1,0.1,3.1
	c0,1.1,0.1,2.2,0.1,3.3c0.1,1.7,0.2,3.4,0.4,5.1l0.2,1.9c0.1,1.4,0.2,2.8,0.3,4.2l0.1,1.9c0.1,1,0.1,2,0.2,2.9c0,0.3,0,0.6,0,0.9
	l0,0.4l0,0.2c0,0.8,0,1.5,0.4,2.2c0.4,0.7,1.1,1,1.8,1c0.7,0,1.5-0.4,1.8-1l0.1-0.1l0.1-0.3c1.2,1,2.3,1.8,3.5,2.6
	c0.6,0.4,1.2,0.6,1.9,0.9c0.4,0.1,1,0.2,1.2,0.2l0.4,0c0.2,0,0.4,0,0.7,0l0.3,0c0.5,0,1-0.1,1.5-0.1c0.7-0.1,1.3-0.1,1.9-0.2
	c0.8-0.1,1.6-0.3,2.3-0.7c0.4-0.2,0.9-0.6,1.3-1c0.7-0.8,1.5-1.7,2.2-2.7c0.7-1,1.3-1.9,1.8-2.9c0.3-0.5,0.5-1,0.7-1.5
	c0.3-0.8,0.5-1.4,0.6-2.1c0.1-0.9,0.1-1.6,0-2.3c-0.1-0.9-0.2-1.7-0.4-2.6c-0.1-0.6-0.3-1.2-0.6-1.9c-0.2-0.6-0.5-1.3-0.9-2
	c-0.4-0.7-0.9-1.3-1.3-1.8c-0.5-0.5-1.1-1-1.9-1.4c-0.6-0.3-1.2-0.6-1.8-0.8c-0.6-0.2-1.3-0.3-1.9-0.4l-0.3,0
	c-0.7-0.1-1.3-0.1-1.9-0.1h-0.2c-0.6,0-1.1,0.1-1.6,0.2l-0.1,0l-0.2,0c-1.2,0.2-2.6,0.4-3.9,1c-1.2,0.5-2.4,1.6-3.6,3.1
	c-0.2,0.3-0.4,0.6-0.6,0.9l0-0.4c-0.1-1.5-0.3-3.1-0.3-4.7c-0.1-2.2-0.2-4.6-0.3-7c-0.2-3-0.4-7.5-0.6-12.3
	C235.5,689.5,234.6,688.6,233.4,688.6 M238.2,726.6c0-0.5,0.1-1,0.1-1.5c0.1-1.1,0.1-2.1,0.3-3.2c0.2-1,0.4-1.9,0.8-2.8
	c0.5-1,0.9-1.9,1.5-2.6c0.4-0.5,0.9-1,1.4-1.4c0.2-0.1,0.4-0.2,0.6-0.3c1.1-0.4,2.2-0.6,3-0.7c0.4,0,0.8-0.1,1.2-0.1
	c0.6,0,1.1,0,1.6,0.1c0.7,0.1,1.2,0.2,1.7,0.4c0.4,0.2,0.7,0.3,1,0.5c0.2,0.2,0.4,0.4,0.6,0.6c0.4,0.5,0.7,1.1,1,1.8
	c0.4,1,0.7,2,0.8,3c0.1,0.6,0.1,1.3,0.1,2c-0.1,0.5-0.2,0.9-0.4,1.4c-0.6,1.3-1.4,2.5-2.4,3.8l-0.1,0.1c-0.5,0.6-1,1.3-1.6,1.9
	c-0.4,0.1-0.8,0.2-1.2,0.3c-0.4,0.1-0.9,0.1-1.3,0.1l-0.4,0c-0.6,0.1-1.1,0.1-1.7,0.1c-0.1,0-0.2,0-0.3,0c-0.2,0-0.3-0.1-0.5-0.1
	c-0.8-0.4-1.5-0.9-2.2-1.4l-0.5-0.4c-0.5-0.3-0.9-0.7-1.4-1l-0.1-0.1C239.3,726.8,238.8,726.5,238.2,726.6L238.2,726.6z"/>
<path class="st1" d="M306.8,708.5h-0.1c-0.4,0-0.7,0.1-1.1,0.2l-0.2,0c-1,0.2-1.9,0.8-2.6,1.2c-1.6,1-3,2.5-4.1,4.2
	c-0.3-0.6-1-1-1.7-1c-1.1,0-2.1,0.9-2.1,2.1c-0.1,2.8-0.2,5.8-0.2,9c0,1.5,0,2.9,0,4.4v1.9c0,0.3,0,0.6,0,0.9c0,0.5,0.1,0.9,0.2,1.3
	c0.2,0.6,0.5,0.9,1,1.3c0.3,0.2,0.7,0.3,1.1,0.3c0.4,0,0.8-0.1,1.1-0.3c0.4-0.3,0.7-0.6,1-1c0.2-0.4,0.3-0.9,0.4-1.4
	c0.1-0.7,0.2-1.3,0.3-1.9l0-0.3c0.1-0.7,0.1-1.5,0.2-2.2c0.1-1.5,0.2-3,0.3-4.5l0.2-1.2c0.2-1.1,0.5-2.2,1-3.5
	c0.4-1,0.9-1.8,1.4-2.5c0.6-0.7,1.2-1.3,1.9-1.8c0.4-0.3,0.8-0.6,1.2-0.8c0.3-0.1,0.6-0.2,0.9-0.2c0.1,0,0.2,0,0.3,0
	c0.2,0,0.5,0.1,0.7,0.2c0.4,0.2,0.7,0.3,0.9,0.5c0.2,0.2,0.5,0.5,0.7,0.7c0.4,0.4,0.9,0.6,1.5,0.6c0.6,0,1.1-0.2,1.5-0.6
	c0.8-0.8,0.8-2.1,0-3c-0.5-0.6-1.1-1.1-1.7-1.5c-0.3-0.2-0.7-0.4-1.1-0.5c-0.5-0.2-1-0.4-1.7-0.6
	C307.5,708.5,307.2,708.5,306.8,708.5"/>
<g>
	<path class="st1" d="M364.5,711.1c-0.1,0-0.1,0-0.2,0c-0.3,0-0.7,0-1,0c-0.7,0-1.3,0.1-1.9,0.1l-0.8,0l-0.3,0
		c-1.2,0.1-2.1,1-2.1,2.1c0,1.1,0.9,2.1,2,2.1l0.2,0l0.8,0l1.5-0.1c0.1,0,0.2,0,0.4,0l-0.1,0.4l-0.1,0.5c-0.1,0.5-0.2,1-0.2,1.5
		l-0.1,0.5c-0.2,1.3-0.3,2.6-0.4,4.3c-0.1,1.2-0.1,2.4-0.1,3.6c0,0.4,0,0.7,0,1c0,0.8,0.1,1.7,0.3,2.8c0.1,0.8,0.4,1.6,0.9,2.3
		c0.4,0.8,1.2,1.3,1.9,1.8c0.3,0.2,0.6,0.3,1,0.3c0.2,0,0.4,0,0.6-0.1c0.5-0.1,1-0.5,1.3-1c0.3-0.5,0.4-1.1,0.2-1.6
		c-0.1-0.5-0.4-0.9-1-1.2c-0.2-0.1-0.3-0.2-0.4-0.4c-0.1-0.1-0.1-0.2-0.2-0.3c-0.1-0.4-0.2-0.9-0.3-1.3c-0.1-0.9-0.1-1.7-0.1-2.5
		l0-0.4c0-0.7,0-1.4,0-2.1c0-1.3,0.2-2.7,0.4-4.3l0.1-0.4c0.1-0.5,0.2-1,0.3-1.5l0.2-1l0-0.2l0.1-0.4c0.2-1,0.4-2.1-0.1-3.1
		c-0.3-0.6-0.7-0.9-1.4-1.2C365.3,711.2,364.9,711.1,364.5,711.1"/>
	<path class="st1" d="M362.8,699.9c-1.1,0-2.1,1-2.1,2.1c0,1.1,1,2.1,2.1,2.1c1.1,0,2.1-1,2.1-2.1
		C364.9,700.8,363.9,699.9,362.8,699.9"/>
</g>
<path class="st1" d="M423.2,703.9L423.2,703.9H423c-0.8,0-1.6,0.1-2.5,0.3c-1.2,0.2-2.2,0.8-3.3,1.7c-0.4,0.4-0.8,0.9-1.2,1.3
	l-0.1,0.2l-0.1,0.2l-0.1,0.1c-0.4,0.5-0.8,0.9-1.1,1.4c-0.7,1-1.2,1.8-1.7,2.6c-0.5,0.9-0.9,1.9-1.3,2.9l-0.2,0.5
	c-0.7,1.7-0.9,3.6-1.1,5.2c-0.1,1.7-0.3,3.2,0.2,4.8c0.2,0.6,0.5,1.3,0.9,2c0.5,0.8,1.2,1.4,1.8,1.9c1,0.8,2.1,1.5,3.3,2
	c1,0.4,2.3,1,3.7,1.5l0.3,0.1c2.2,0.7,4.4,1.4,6.7,1.8c0.2,0,0.4,0,0.6,0c0.4,0,0.7-0.1,1-0.3c0.5-0.3,0.8-0.7,1-1.3
	c0.2-0.5,0.1-1.1-0.2-1.6c-0.2-0.4-0.7-0.9-1.3-1c-1.6-0.2-3.1-0.7-4.4-1c-1.6-0.5-3.1-1-4.3-1.4c-1.2-0.5-2.3-1.1-3.4-1.8
	c-0.4-0.3-0.8-0.7-1.1-1c-0.1-0.2-0.2-0.4-0.4-0.6c-0.2-0.4-0.3-0.8-0.3-1.1c0-0.6,0-1.2,0-1.9c0,0,0.1,0.1,0.3,0.1
	c0.2,0,0.4,0,0.6-0.1c0.6-0.1,1.3-0.2,1.9-0.3l0.3,0l0.3,0c2.4-0.2,4.6-0.4,6.7-0.4c1,0,1.9,0,2.9,0l1.2,0h0.6h0.6h0.6
	c0.4,0,0.8,0,1.2-0.1c0.6-0.1,1.2-0.4,1.7-0.9c0.4-0.4,0.8-1.1,0.9-1.8c0.1-0.6,0.2-1.1,0.2-1.9c0-0.6,0.1-1.2,0.1-1.7
	c0-0.5,0-1,0-1.6l0-0.1c0-0.6-0.1-1.2-0.2-1.7l0-0.2c-0.1-0.7-0.2-1.2-0.3-1.6c-0.3-1.2-0.7-2-1.4-2.6c-0.5-0.5-1.1-0.7-1.7-0.9
	l-0.2-0.1c-0.2-0.1-0.4-0.1-0.6-0.2c-0.6-0.2-1.1-0.3-1.7-0.5c-0.5-0.1-1.1-0.2-1.6-0.3l-0.1,0l-0.4,0
	C425.3,704,424.2,704,423.2,703.9 M415,717.1c0.1-0.2,0.1-0.4,0.2-0.6c0.1-0.3,0.3-0.7,0.4-1c0.3-0.7,0.7-1.5,1.1-2.2
	c0.4-0.7,0.9-1.4,1.4-2c0.6-0.8,1.4-1.8,2.3-2.6c0.1-0.1,0.3-0.2,0.4-0.2c0.4-0.1,0.7-0.2,1.1-0.3c0.3,0,0.6,0,0.9,0
	c0.5,0,1.1,0,1.6,0.1c0.6,0,1.2,0.1,1.8,0.2c1.2,0.2,2.3,0.5,3.3,0.9c0.3,0.7,0.4,1.6,0.5,2.3c0.1,0.6,0.2,1.4,0.1,2.1
	c0,0.9,0,1.8-0.1,2.7l-0.2,0l-0.6,0l-0.3,0c-0.6,0-1.2,0-1.8,0c-1.3,0-2.6,0-3.8,0.1l-0.5,0l-0.2,0l-0.2,0c-0.9,0-2.1,0.1-3.2,0.2
	l-0.7,0.1c-0.6,0-1.2,0.1-1.8,0.2l-0.7,0.1l-0.1,0l-0.1,0l-0.4,0.1L415,717.1z"/>
<path class="st1" d="M481.3,692.3c-0.8,0-1.5,0.4-1.8,1c-0.3,0.7-0.7,1.4-0.9,2.1c-0.3,0.7-0.4,1.4-0.5,2c-0.2,1-0.3,2.2-0.4,3.5
	c0,0.3,0,0.6-0.1,0.8l0,0.4c0,0.7-0.1,1.5-0.2,2.2c-0.1,1-0.2,1.9-0.3,2.9l0,0.4l-0.1,0.5c-0.1,1-0.2,1.9-0.3,2.9
	c-0.4,3.8-0.5,8-0.4,13.2c0,2.1,0.3,4.2,0.7,6c0.1,0.5,0.3,0.9,0.5,1.3c0.2,0.4,0.4,0.7,0.6,0.9c0.2,0.2,0.4,0.4,0.7,0.6l0.1,0.1
	c0.2,0.1,0.3,0.2,0.5,0.2c0.3,0.1,0.6,0.3,1,0.4c0.2,0.1,0.4,0.1,0.6,0.2l0.2,0c0.7,0.2,1.4,0.3,2.2,0.3l0.5,0.1
	c0.2,0,0.4,0.1,0.5,0.1c0.2,0,0.4,0.1,0.6,0.1c0.4,0,0.7-0.1,1-0.3c0.5-0.3,0.8-0.7,1-1.2c0.1-0.5,0.1-1.1-0.2-1.6
	c-0.2-0.4-0.7-0.9-1.2-1c-0.7-0.1-1.3-0.2-2-0.3c-0.6-0.1-1.4-0.2-2.2-0.5c-0.3-0.7-0.4-1.4-0.5-2l0-0.1c-0.1-1-0.2-1.9-0.2-2.9
	c0-1.2,0-2.3,0-3.5c0-1.8,0-4.1,0.2-6.3c0.1-2.2,0.3-4.6,0.6-6.9l0.1-1.1c0.1-0.6,0.1-1.3,0.2-1.9c0.1-0.7,0.1-1.5,0.2-2.2
	c0-0.4,0-0.8,0.1-1.2c0.1-0.7,0.1-1.3,0.2-2c0.1-0.8,0.3-1.8,0.6-2.8c0.2-0.4,0.4-0.8,0.6-1.2c0.3-0.6,0.4-1.1,0.2-1.6
	c-0.1-0.5-0.5-1-1-1.2C482.1,692.4,481.7,692.3,481.3,692.3"/>
</svg>
